<?xml version="1.0" encoding="UTF-8"?>
<svg version="1.1" xmlns="http://www.w3.org/2000/svg" width="215" height="66" viewBox="0 0 215 66" fill="none">
<path d="M0 0 C206.91 0 413.82 0 627 0 C627 208.56 627 417.12 627 632 C420.09 632 213.18 632 0 632 C0 423.44 0 214.88 0 0 Z " fill="#FEFEFE" transform="translate(0,0)"/>
<path d="M0 0 C1.53767532 -0.01029488 1.53767532 -0.01029488 3.10641479 -0.02079773 C6.48644966 -0.03906153 9.86602025 -0.03522907 13.24609375 -0.02954102 C15.59969229 -0.03410262 17.9532895 -0.03940813 20.30688477 -0.04542542 C25.23622046 -0.05435543 30.16539413 -0.05193406 35.09472656 -0.04199219 C41.40990406 -0.03049599 47.72452296 -0.05072513 54.03962708 -0.07990932 C58.89867705 -0.09825801 63.75759278 -0.09798159 68.6166687 -0.0922718 C70.94506616 -0.09211846 73.27347266 -0.09817323 75.60183716 -0.11056328 C78.85731039 -0.12544772 82.11174663 -0.11481439 85.3671875 -0.09765625 C86.80745804 -0.1121582 86.80745804 -0.1121582 88.27682495 -0.12695312 C94.05725031 -0.06318763 97.24376092 0.62300072 101.68359375 4.40405273 C103.09912109 6.20336914 103.09912109 6.20336914 104.01953125 8.00561523 C104.36113281 8.66045898 104.70273437 9.31530273 105.0546875 9.98999023 C105.38597656 10.66288086 105.71726562 11.33577148 106.05859375 12.02905273 C106.41308594 12.70967773 106.76757812 13.39030273 107.1328125 14.09155273 C109.68359375 19.07493232 109.68359375 19.07493232 109.68359375 21.40405273 C110.40498535 21.39517029 111.12637695 21.38628784 111.86962891 21.37713623 C118.69533562 21.29671534 125.52097077 21.23594929 132.34703064 21.19680405 C135.85574694 21.17600166 139.36406908 21.1478211 142.87255859 21.10229492 C146.91377368 21.05018916 150.95458004 21.03104697 154.99609375 21.01342773 C156.24535645 20.99278259 157.49461914 20.97213745 158.78173828 20.9508667 C165.91461675 20.94904138 170.64730131 21.50084586 176.68359375 25.40405273 C181.68753595 30.53630114 181.80779815 34.61008715 181.83076477 41.58880615 C181.83444146 42.31345165 181.83811815 43.03809714 181.84190625 43.78470159 C181.8529215 46.2134899 181.85678324 48.64223539 181.8605957 51.07104492 C181.86686194 52.81232844 181.87350889 54.55361063 181.88050842 56.29489136 C181.90153065 62.01356071 181.91190852 67.73223028 181.921875 73.45092773 C181.92592312 75.42076888 181.93004006 77.39060989 181.93422508 79.36045074 C181.95327205 88.61462927 181.9675046 97.86879983 181.97583705 107.12299418 C181.98561053 117.80086331 182.01193505 128.47852519 182.05233794 139.15632129 C182.08250624 147.41293601 182.09730658 155.66949133 182.10061806 163.9261601 C182.10296756 168.85606665 182.1119152 173.78575169 182.13707924 178.71559906 C182.16037768 183.35480991 182.16458607 187.99365365 182.15431786 192.63290787 C182.15382283 194.33242388 182.16013346 196.03195807 182.1738739 197.73141861 C182.2967336 213.83219173 182.2967336 213.83219173 177.68359375 220.40405273 C172.72709818 224.42063132 169.25086168 224.69291102 163.00634766 224.44995117 C148.70262371 223.912563 139.66767868 228.87813911 128.10400391 236.79248047 C123.32555936 239.97409359 118.63524841 242.89931446 113.05859375 244.34155273 C108.29022391 243.01700556 106.68262874 240.29925677 103.87109375 236.37280273 C102.68359375 233.40405273 102.68359375 233.40405273 103.68359375 225.40405273 C95.76359375 225.40405273 87.84359375 225.40405273 79.68359375 225.40405273 C81.08609375 228.37405273 82.48859375 231.34405273 83.93359375 234.40405273 C84.36704102 235.3231543 84.80048828 236.24225586 85.24707031 237.18920898 C87.66187161 242.29466376 90.13918029 247.3619123 92.68359375 252.40405273 C93.31861816 252.41339844 93.95364258 252.42274414 94.60791016 252.43237305 C97.50890175 252.48634006 100.40832619 252.569934 103.30859375 252.65405273 C104.30761719 252.66823242 105.30664062 252.68241211 106.3359375 252.69702148 C114.04503662 252.95228967 117.45263685 254.34314619 123.05859375 259.65405273 C125.24080773 263.34703024 125.38202313 266.21347646 124.68359375 270.40405273 C122.65270564 275.10716204 119.24781136 278.12194393 114.68359375 280.40405273 C112.79668827 280.50412055 110.9062121 280.53915306 109.0166626 280.54449463 C107.81094604 280.55020477 106.60522949 280.55591492 105.36297607 280.5617981 C104.01965342 280.56304352 102.67633066 280.5641686 101.33300781 280.56518555 C99.92374542 280.56981294 98.51448428 280.5748375 97.10522461 280.58023071 C93.27035222 280.59336631 89.43549734 280.59980219 85.60060596 280.60424137 C83.20482204 280.60717088 80.80904292 280.61127551 78.41326141 280.61574554 C70.91786287 280.62942497 63.42247529 280.63908883 55.92706513 280.64294744 C47.27427881 280.64742619 38.62165061 280.66496368 29.96891236 280.69394803 C23.28178148 280.71557037 16.59469506 280.72565205 9.90752959 280.72698855 C5.9133101 280.7280364 1.91923915 280.73393957 -2.07494354 280.75180817 C-5.83422097 280.76829796 -9.59323834 280.77044006 -13.35253906 280.76166916 C-14.73037666 280.7608992 -16.10822827 280.76523611 -17.48603058 280.77512741 C-19.37115791 280.78786412 -21.2563899 280.78017214 -23.14154053 280.77154541 C-24.72220621 280.77374525 -24.72220621 280.77374525 -26.33480453 280.77598953 C-31.16403414 280.17357232 -34.3863445 278.4346617 -37.62890625 274.84155273 C-40.43511262 270.78814353 -40.7311567 268.38105811 -40.31640625 263.40405273 C-37.57755502 258.31761473 -34.80628545 255.23401247 -29.31640625 253.40405273 C-27.61623781 253.32227159 -25.91304328 253.29655772 -24.2109375 253.30639648 C-23.22802734 253.30961914 -22.24511719 253.3128418 -21.23242188 253.31616211 C-20.20826172 253.32454102 -19.18410156 253.33291992 -18.12890625 253.34155273 C-17.09314453 253.34606445 -16.05738281 253.35057617 -14.99023438 253.35522461 C-12.43223359 253.36701263 -9.87434892 253.38346758 -7.31640625 253.40405273 C-7.06761719 252.58936523 -6.81882812 251.77467773 -6.5625 250.93530273 C-5.09577141 246.77880541 -3.28090003 242.87555535 -1.37890625 238.90405273 C-1.03150391 238.17057617 -0.68410156 237.43709961 -0.32617188 236.68139648 C1.629368 232.56408278 3.64295887 228.47998386 5.68359375 224.40405273 C3.97470474 224.4173764 3.97470474 224.4173764 2.23129272 224.43096924 C-8.50956816 224.51208567 -19.25036682 224.57203294 -29.99146461 224.61130142 C-35.51348266 224.63216854 -41.03525326 224.66047059 -46.55712891 224.70581055 C-51.88691004 224.74929893 -57.21645328 224.77319643 -62.54639816 224.78356171 C-64.57897053 224.79094765 -66.61153001 224.80537072 -68.64400101 224.82697296 C-71.49293313 224.85604643 -74.34088459 224.86000705 -77.18994141 224.8581543 C-78.0286377 224.8725354 -78.86733398 224.8869165 -79.73144531 224.9017334 C-85.07584298 224.86417092 -88.06293125 223.926587 -92.31640625 220.40405273 C-96.85561192 215.37412212 -97.44175681 211.97429625 -97.46357727 205.29486084 C-97.46725396 204.56628065 -97.47093065 203.83770047 -97.47471875 203.08704209 C-97.48575587 200.63899427 -97.48959947 198.1909889 -97.4934082 195.74291992 C-97.49967282 193.9903093 -97.50631962 192.2377 -97.51332092 190.48509216 C-97.53436337 184.72371343 -97.54472325 178.96233443 -97.5546875 173.20092773 C-97.55873494 171.21775549 -97.56285186 169.23458339 -97.56703758 167.25141144 C-97.58608939 157.93476103 -97.60032063 148.61811855 -97.60864955 139.3014524 C-97.61842338 128.54602321 -97.64474677 117.79079976 -97.68515044 107.03544307 C-97.71530646 98.72281365 -97.73011793 90.41024323 -97.73343056 82.09756017 C-97.73578158 77.13245981 -97.74474886 72.16757923 -97.76989174 67.20253754 C-97.79316852 62.53051274 -97.79740728 57.8588525 -97.78713036 53.18678474 C-97.78663479 51.47394918 -97.79296127 49.76109569 -97.8066864 48.04831505 C-97.82440673 45.70550089 -97.81729958 43.36399492 -97.80415344 41.0211792 C-97.8065418 39.71152065 -97.80893015 38.40186211 -97.81139088 37.05251694 C-97.12776032 32.01356934 -95.19322712 28.39535746 -91.66467285 24.65156555 C-85.28210134 20.44054403 -78.86489628 20.67395798 -71.41015625 20.69702148 C-70.07635256 20.6838851 -68.74256868 20.66857495 -67.40881348 20.65119934 C-63.92355733 20.61156142 -60.43882404 20.60117286 -56.95336914 20.59716797 C-53.38672232 20.587796 -49.82037761 20.55035751 -46.25390625 20.51538086 C-39.2747826 20.45102221 -32.29580868 20.41760432 -25.31640625 20.40405273 C-25.07519043 19.90478271 -24.83397461 19.4055127 -24.58544922 18.89111328 C-23.47264763 16.61497633 -22.33250191 14.35362859 -21.19140625 12.09155273 C-20.62292969 10.91302734 -20.62292969 10.91302734 -20.04296875 9.71069336 C-19.65625 8.95336914 -19.26953125 8.19604492 -18.87109375 7.41577148 C-18.35264893 6.37102661 -18.35264893 6.37102661 -17.82373047 5.30517578 C-13.24600044 -0.46851773 -6.71176954 -0.03146703 0 0 Z " fill="#96AA66" transform="translate(269.31640625,137.595947265625)"/>
<path d="M0 0 C11.22 0 22.44 0 34 0 C34.0625 10.5 34.0625 10.5 34.02758789 13.75976562 C34.20007489 20.27460543 35.57214302 23.76204424 40.11108398 28.45898438 C41.99650863 29.99715167 43.81607755 30.95130642 46 32 C46.00142502 33.04125534 46.00285004 34.08251068 46.00431824 35.15531921 C46.02098992 44.96964391 46.06376871 54.78355407 46.13209057 64.59765911 C46.16637708 69.64321013 46.19147314 74.68845783 46.19555664 79.73413086 C46.19983601 84.6038283 46.22826874 89.47284131 46.27343178 94.34232521 C46.28641834 96.19980698 46.29071036 98.05737062 46.28615379 99.9148922 C46.28125592 102.51782444 46.30730205 105.11875002 46.34057617 107.72143555 C46.32763771 108.87266403 46.32763771 108.87266403 46.31443787 110.04714966 C46.39409097 113.76558 46.90877942 115.86313545 48.98364258 118.97619629 C53.07129899 121.71878049 56.09876942 121.70936262 60.92114258 121.65942383 C61.80944763 121.66990753 62.69775269 121.68039124 63.61297607 121.69119263 C66.54051717 121.71992638 69.46687449 121.71365306 72.39453125 121.70703125 C74.42764263 121.72014729 76.46074098 121.73545122 78.49382019 121.75285339 C83.83843857 121.7927271 89.18271624 121.8028954 94.52746582 121.80688477 C99.98391063 121.81621168 105.44015489 121.85362249 110.89648438 121.88867188 C121.59764686 121.95327197 132.29865959 121.98649224 143 122 C144.98 125.63 146.96 129.26 149 133 C147.68 132.67 146.36 132.34 145 132 C140.33679182 131.49113471 137.05375137 131.34140539 133 133.875 C130.2260669 136.82230392 129.84529197 138.42684703 129.8125 142.375 C129.79832031 143.14585937 129.78414062 143.91671875 129.76953125 144.7109375 C130.20562921 149.04235117 131.9293203 150.9293203 135 154 C90.45 154 45.9 154 0 154 C0 103.18 0 52.36 0 0 Z " fill="#FDFEFC" transform="translate(197,184)"/>
<path d="M0 0 C206.91 0 413.82 0 627 0 C627 208.56 627 417.12 627 632 C420.09 632 213.18 632 0 632 C0 630.35 0 628.7 0 627 C205.92 627 411.84 627 624 627 C624 420.42 624 213.84 624 1 C418.08 1 212.16 1 0 1 C0 0.67 0 0.34 0 0 Z " fill="#D9D9D9" transform="translate(0,0)"/>
<path d="M0 0 C0.70616959 -0.00540298 1.41233917 -0.01080597 2.13990784 -0.01637268 C4.46935202 -0.02885893 6.79755992 -0.01237119 9.12695312 0.00561523 C10.74833236 0.00546024 12.36971198 0.00397123 13.99108887 0.00120544 C17.38729249 -0.00017849 20.78307378 0.01237818 24.17919922 0.03515625 C28.53064007 0.06354118 32.88137923 0.06080365 37.23287201 0.04806614 C40.58036279 0.04110829 43.92769164 0.04889939 47.27516174 0.06132317 C48.87951537 0.06583666 50.48388639 0.06617535 52.08824158 0.06225777 C54.3313251 0.05934442 56.57344461 0.07585694 58.81640625 0.09765625 C60.09229614 0.10305923 61.36818604 0.10846222 62.68273926 0.11402893 C66.11617304 0.52670563 67.56361676 0.98655396 69.90820312 3.50170898 C70.28568016 6.35131672 70.4185484 8.82956473 70.37695312 11.67749023 C70.38400269 12.48026901 70.39105225 13.28304779 70.39831543 14.1101532 C70.42780483 17.54219033 70.41121215 20.97366135 70.39892578 24.40576172 C70.39653692 26.91334643 70.41751234 29.42001896 70.43945312 31.92749023 C70.42813354 32.69644119 70.41681396 33.46539215 70.40515137 34.25764465 C70.45423835 39.52574585 71.69422161 42.17724748 74.90820312 46.50170898 C74.90820312 47.49170898 74.90820312 48.48170898 74.90820312 49.50170898 C75.89820313 48.84170898 76.88820313 48.18170898 77.90820312 47.50170898 C79.39320313 47.99670898 79.39320313 47.99670898 80.90820312 48.50170898 C80.41320312 49.49170898 80.41320312 49.49170898 79.90820312 50.50170898 C81.39320313 50.99670898 81.39320313 50.99670898 82.90820312 51.50170898 C82.72257812 53.38889648 82.72257812 53.38889648 82.53320312 55.31420898 C82.47232984 60.81889303 84.77093931 64.39085083 87.69335938 68.92358398 C89.12845991 71.96913496 88.90152961 73.34576882 87.90820312 76.50170898 C86.25820313 76.83170898 84.60820312 77.16170898 82.90820312 77.50170898 C77.93161515 70.28051737 73.59008729 62.79621965 69.3203125 55.14233398 C64.72801412 45.70588779 64.72801412 45.70588779 57.09570312 39.56420898 C56.01289063 39.53327148 56.01289063 39.53327148 54.90820312 39.50170898 C54.4273335 44.83134729 55.74933651 47.5175194 58.65820312 51.93920898 C59.39290531 53.08483256 60.12728357 54.23066393 60.86132812 55.37670898 C61.53679687 56.40795898 62.21226562 57.43920898 62.90820312 58.50170898 C65.77929318 62.9187706 67.43892688 66.06179053 66.90820312 71.50170898 C66.24820313 71.50170898 65.58820313 71.50170898 64.90820312 71.50170898 C64.90820312 72.16170898 64.90820312 72.82170898 64.90820312 73.50170898 C61.25503642 72.25194143 60.12754477 71.83072145 57.90820312 68.50170898 C57.90820312 67.51170898 57.90820312 66.52170898 57.90820312 65.50170898 C28.86820312 65.50170898 -0.17179687 65.50170898 -30.09179688 65.50170898 C-30.42179688 64.84170898 -30.75179687 64.18170898 -31.09179688 63.50170898 C-32.08179688 63.17170898 -33.07179687 62.84170898 -34.09179688 62.50170898 C-34.42179688 61.18170898 -34.75179687 59.86170898 -35.09179688 58.50170898 C-27.17179688 58.50170898 -19.25179688 58.50170898 -11.09179688 58.50170898 C-11.13820313 54.64999023 -11.18460937 50.79827148 -11.23242188 46.82983398 C-11.26360833 43.10328489 -11.28790146 39.37675028 -11.31152344 35.65014648 C-11.33165063 33.05828352 -11.35895503 30.46646603 -11.39355469 27.87475586 C-11.44202189 24.1513345 -11.46475504 20.42851299 -11.48242188 16.70483398 C-11.50306702 15.54429504 -11.52371216 14.3837561 -11.54498291 13.18804932 C-11.54528503 12.10723083 -11.54558716 11.02641235 -11.54589844 9.9128418 C-11.55478088 8.96242004 -11.56366333 8.01199829 -11.57281494 7.03277588 C-10.33000992 0.49326546 -5.91560575 0.00077043 0 0 Z " fill="#95AB64" transform="translate(282.091796875,239.498291015625)"/>
<path d="M0 0 C0.99 0 1.98 0 3 0 C3 0.66 3 1.32 3 2 C8.27344313 4.22039711 13.35614916 4.78709806 19 4 C21.06342179 3.08206882 21.06342179 3.08206882 22.875 1.875 C23.90625 1.25625 24.9375 0.6375 26 0 C28.1875 0.625 28.1875 0.625 30 2 C34.74186884 4.82848317 39.62900108 4.66947295 45 4 C47.12931891 3.09413943 47.12931891 3.09413943 48.9375 1.875 C49.948125 1.25625 50.95875 0.6375 52 0 C54.25 0.625 54.25 0.625 56 2 C60.65283872 5.10189248 65.54795122 4.63631339 71 4 C72.94064101 3.1128474 72.94064101 3.1128474 74.4375 1.875 C75.283125 1.25625 76.12875 0.6375 77 0 C80.27396279 0.7613867 82.19064465 2.12709643 85 4 C90.38690845 4.66850523 96.09415854 5.14855466 100.75 2 C101.4925 1.34 102.235 0.68 103 0 C103.515625 0.268125 104.03125 0.53625 104.5625 0.8125 C107.65646451 2.31981604 110.83666946 3.64428691 114 5 C114 28.1 114 51.2 114 75 C111.36 75 108.72 75 106 75 C102.69898869 76.39924945 102.69898869 76.39924945 100 78 C99.34 78 98.68 78 98 78 C91.24254287 69.78484084 92.31760897 60.09349484 92.375 50.0625 C92.37884687 47.50408943 92.37547536 44.94637729 92.35440063 42.38804626 C92.34229531 40.80439985 92.34500765 39.22055567 92.36410522 37.63697815 C92.38629561 35.2551736 92.38629561 35.2551736 92 32 C88.42127739 29.61418493 85.9020606 29.72996955 81.7746582 29.77294922 C80.6767244 29.77251114 80.6767244 29.77251114 79.55661011 29.77206421 C77.13787979 29.77345726 74.71945774 29.78901711 72.30078125 29.8046875 C70.62355213 29.80841772 68.94632083 29.81126465 67.26908875 29.81326294 C62.85494977 29.82089868 58.44094244 29.84054665 54.02685547 29.8626709 C49.52247905 29.8831306 45.01808136 29.89226492 40.51367188 29.90234375 C31.67572342 29.9237926 22.83787266 29.95792784 14 30 C12.99314613 33.02056161 12.84627314 35.13554614 12.79467773 38.29760742 C12.77473251 39.37850143 12.75478729 40.45939545 12.73423767 41.57304382 C12.70916893 43.32159416 12.70916893 43.32159416 12.68359375 45.10546875 C12.66281265 46.29981033 12.64203156 47.49415192 12.62062073 48.72468567 C12.55515724 52.54556443 12.4962549 56.36651276 12.4375 60.1875 C12.39431176 62.77539786 12.35069737 65.36328865 12.30664062 67.95117188 C12.19947905 74.30070968 12.09820236 80.65031756 12 87 C5.4 87 -1.2 87 -8 87 C-8 59.94 -8 32.88 -8 5 C-6.02 4.01 -4.04 3.02 -2 2 C-1.34 1.34 -0.68 0.68 0 0 Z " fill="#FCFDFA" transform="translate(259,211)"/>
<path d="M0 0 C11.22 0 22.44 0 34 0 C34 44.55 34 89.1 34 135 C31.31796909 132.31796909 30.00396477 129.12515521 28.375 125.75 C25.6321268 120.18716755 22.83072684 114.66912219 19.8125 109.25 C19.20019531 108.14140625 18.58789062 107.0328125 17.95703125 105.890625 C15.90755461 102.86345391 14.04599566 101.00508061 11 99 C7.23307391 98.59640078 4.76165971 98.68841194 1.25 100.125 C0.5075 100.41375 -0.235 100.7025 -1 101 C-1.99 100.34 -2.98 99.68 -4 99 C-7.96 98.505 -7.96 98.505 -12 98 C-12 75.89 -12 53.78 -12 31 C-10.02 30.01 -8.04 29.02 -6 28 C-2.2863837 23.28270361 -0.97763261 19.55265212 -0.68359375 13.671875 C-0.64548584 12.9509668 -0.60737793 12.23005859 -0.56811523 11.48730469 C-0.52501221 10.58399414 -0.48190918 9.68068359 -0.4375 8.75 C-0.293125 5.8625 -0.14875 2.975 0 0 Z " fill="#FEFEFD" transform="translate(393,184)"/>
<path d="M0 0 C3.83409303 3.30525261 5.13359919 6.41688971 7 11 C7.95253662 11.01401855 7.95253662 11.01401855 8.92431641 11.02832031 C11.825308 11.08228733 14.72473244 11.16588127 17.625 11.25 C18.62402344 11.26417969 19.62304688 11.27835937 20.65234375 11.29296875 C28.36144287 11.54823693 31.7690431 12.93909346 37.375 18.25 C39.55721398 21.94297751 39.69842938 24.80942373 39 29 C36.96911189 33.7031093 33.56421761 36.71789119 29 39 C27.11309452 39.10006781 25.22261835 39.13510032 23.33306885 39.14044189 C22.12735229 39.14615204 20.92163574 39.15186218 19.67938232 39.15774536 C18.33605967 39.15899078 16.99273691 39.16011587 15.64941406 39.16113281 C14.24015167 39.16576021 12.83089053 39.17078476 11.42163086 39.17617798 C7.58675847 39.18931357 3.75190359 39.19574946 -0.08298779 39.20018864 C-2.47877171 39.20311815 -4.87455083 39.20722277 -7.27033234 39.21169281 C-14.76573088 39.22537223 -22.26111846 39.2350361 -29.75652862 39.2388947 C-38.40931494 39.24337346 -47.06194314 39.26091095 -55.71468139 39.2898953 C-62.40181227 39.31151764 -69.08889869 39.32159931 -75.77606416 39.32293582 C-79.77028365 39.32398367 -83.7643546 39.32988684 -87.75853729 39.34775543 C-91.51781472 39.36424522 -95.27683209 39.36638733 -99.03613281 39.35761642 C-100.41397041 39.35684647 -101.79182202 39.36118338 -103.16962433 39.37107468 C-105.05475166 39.38381138 -106.93998365 39.3761194 -108.82513428 39.36749268 C-109.8789114 39.36895924 -110.93268852 39.3704258 -112.01839828 39.3719368 C-116.84762789 38.76951958 -120.06993825 37.03060897 -123.3125 33.4375 C-126.11870637 29.3840908 -126.41475045 26.97700537 -126 22 C-123.89264441 18.08633961 -121.78701584 15.3242146 -118 13 C-115.46630859 12.65942383 -115.46630859 12.65942383 -112.6484375 12.70703125 C-111.63265625 12.71669922 -110.616875 12.72636719 -109.5703125 12.73632812 C-108.51585937 12.76146484 -107.46140625 12.78660156 -106.375 12.8125 C-104.78171875 12.83280273 -104.78171875 12.83280273 -103.15625 12.85351562 C-100.43707791 12.88984044 -97.71879545 12.94310312 -95 13 C-94.34 13 -93.68 13 -93 13 C-91.3553326 10.53673288 -91.3553326 10.53673288 -90 8 C-89.34 8.33 -88.68 8.66 -88 9 C-87.67 8.67 -87.34 8.34 -87 8 C-85 10 -85 10 -85 13 C-57.61 13 -30.22 13 -2 13 C-2.495 11.02 -2.495 11.02 -3 9 C-2.48795015 5.82529092 -1.23300584 2.95921401 0 0 Z " fill="#95AB64" transform="translate(355,379)"/>
<path d="M0 0 C4.53484235 -0.39114029 4.53484235 -0.39114029 6.5480957 1.30175781 C10.86677813 7.5452883 14.55405268 14.08803362 18.1875 20.75 C19.40751449 22.97540864 20.63006892 25.1994272 21.85546875 27.421875 C22.38809326 28.39737305 22.92071777 29.37287109 23.46948242 30.37792969 C24.84422268 32.73312356 26.31240029 34.86197332 28 37 C30.475 36.505 30.475 36.505 33 36 C32.6060185 30.87824046 30.73366838 27.49741631 28.05859375 23.24609375 C26.81362223 20.60454902 26.65883235 18.8879121 27 16 C27.66 15.34 28.32 14.68 29 14 C30.96875 14.14453125 30.96875 14.14453125 33 15 C34.34375 16.63671875 34.34375 16.63671875 35.5 18.6875 C35.91636719 19.40292969 36.33273437 20.11835938 36.76171875 20.85546875 C37.17035156 21.56316406 37.57898438 22.27085937 38 23 C38.7602504 24.17359042 39.5298462 25.34122989 40.3125 26.5 C40.869375 27.325 41.42625 28.15 42 29 C43.65 28.67 45.3 28.34 47 28 C46.60755209 24.62494799 46.21149888 22.33351747 44.375 19.4375 C43 17 43 17 43.3125 14.1875 C43.539375 13.465625 43.76625 12.74375 44 12 C45.65 11.67 47.3 11.34 49 11 C51.74277578 14.19990508 53.6302836 17.00499382 55 21 C56.98 20.34 58.96 19.68 61 19 C61 16.69 61 14.38 61 12 C62.32 11.67 63.64 11.34 65 11 C85.18412361 43.67905727 85.18412361 43.67905727 85 57 C83.26826173 58.00005639 81.53648159 59.00004027 79.8046875 60 C78.15073975 60.95531616 78.15073975 60.95531616 76.46337891 61.92993164 C74.06887 63.31221371 71.6725951 64.69136372 69.27490234 66.06811523 C61.74700201 70.39170105 61.74700201 70.39170105 54.296875 74.84765625 C53.65766113 75.23244141 53.01844727 75.61722656 52.35986328 76.01367188 C50.74632231 76.98915344 49.14227358 77.98028889 47.5390625 78.97265625 C45 80 45 80 43.09375 79.26538086 C40.87458981 77.92420697 38.95839724 76.43399668 36.9609375 74.78125 C31.83337218 70.72952967 26.35183921 67.62165904 20.625 64.5 C0.3712908 53.3712908 0.3712908 53.3712908 -3 50 C-3.125 47.5 -3.125 47.5 -3 45 C-2.505 44.505 -2.505 44.505 -2 44 C4.58900813 44.38029407 8.64069786 46.85656398 14.01367188 50.29296875 C17.4643674 52.4875285 17.4643674 52.4875285 21.42578125 52.7421875 C21.94527344 52.49726563 22.46476562 52.25234375 23 52 C22.50679835 46.73973506 21.29921153 43.13351906 18.6484375 38.578125 C18.14275742 37.69988068 18.14275742 37.69988068 17.62686157 36.80389404 C16.55341172 34.94626265 15.46434236 33.09834614 14.375 31.25 C13.66697968 30.02661354 12.9599407 28.8026586 12.25390625 27.578125 C8.45980003 21.0346251 4.53040159 14.6594857 0.13916016 8.49121094 C-1.32678332 5.28536284 -0.8518794 3.35751464 0 0 Z " fill="#FCFDF9" transform="translate(337,279)"/>
<path d="M0 0 C18.15 0 36.3 0 55 0 C57.145 4.228125 59.29 8.45625 61.5 12.8125 C62.17869141 14.1425708 62.85738281 15.4726416 63.55664062 16.84301758 C64.08451172 17.89126709 64.61238281 18.9395166 65.15625 20.01953125 C65.97319336 21.62985229 65.97319336 21.62985229 66.80664062 23.27270508 C68 26 68 26 68 29 C41.27 29 14.54 29 -13 29 C-9.65004146 18.95012438 -4.5706234 9.55675802 0 0 Z " fill="#FCFDFB" transform="translate(284,362)"/>
<path d="M0 0 C3.63 0 7.26 0 11 0 C11 11.55 11 23.1 11 35 C5.39 35 -0.22 35 -6 35 C-4.4181969 23.22061519 -2.74293822 11.5748102 0 0 Z " fill="#F6F8F0" transform="translate(297,146)"/>
<path d="M0 0 C3.63 0 7.26 0 11 0 C11.73605613 3.91091155 12.47007294 7.82216923 13.19921875 11.734375 C13.66838512 14.24772649 14.14943765 16.75715076 14.64453125 19.265625 C14.82371094 20.18859375 15.00289063 21.1115625 15.1875 22.0625 C15.34605469 22.85785156 15.50460937 23.65320313 15.66796875 24.47265625 C16.08188542 27.62329253 16 30.82229077 16 34 C10.72 34 5.44 34 0 34 C0 22.78 0 11.56 0 0 Z " fill="#FDFDFA" transform="translate(316,147)"/>
<path d="M0 0 C3.3 0 6.6 0 10 0 C13.06376242 6.69335484 15.74227904 13.45554773 18.25 20.375 C18.61351562 21.35855469 18.97703125 22.34210938 19.3515625 23.35546875 C19.69445312 24.29777344 20.03734375 25.24007812 20.390625 26.2109375 C20.70032227 27.05962402 21.01001953 27.90831055 21.32910156 28.78271484 C22 31 22 31 22 34 C19.35409986 34.02684679 16.70846904 34.04676357 14.0625 34.0625 C13.30775391 34.07087891 12.55300781 34.07925781 11.77539062 34.08789062 C9.85005687 34.09652441 7.92464419 34.05224333 6 34 C4.30618979 32.30618979 4.42685283 30.03025329 4.0625 27.71484375 C3.80339844 26.08192383 3.80339844 26.08192383 3.5390625 24.41601562 C3.27222656 22.69415039 3.27222656 22.69415039 3 20.9375 C2.73316406 19.25624023 2.73316406 19.25624023 2.4609375 17.54101562 C1.54225513 11.70326906 0.68965545 5.86925524 0 0 Z " fill="#FBFDF7" transform="translate(335,147)"/>
<path d="M0 0 C3.3 0 6.6 0 10 0 C9.57076588 11.56785956 7.29730177 22.68445316 5 34 C-0.61 34 -6.22 34 -12 34 C-10.19866394 27.69532378 -8.17405198 21.49651488 -6 15.3125 C-5.7510498 14.60037354 -5.50209961 13.88824707 -5.24560547 13.15454102 C-3.66233752 8.68727843 -1.91018842 4.33771954 0 0 Z " fill="#FAFBF5" transform="translate(278,147)"/>
<path d="M0 0 C3.3 0 6.6 0 10 0 C10.94359375 1.70542969 10.94359375 1.70542969 11.90625 3.4453125 C12.77068218 5.0052921 13.63527718 6.56518149 14.5 8.125 C14.94907715 8.93582031 15.3981543 9.74664062 15.86083984 10.58203125 C18.02773776 14.48535814 20.20711601 18.37922616 22.4453125 22.2421875 C22.81462891 22.8801123 23.18394531 23.51803711 23.56445312 24.17529297 C24.57309719 25.91069945 25.5871842 27.64293904 26.6015625 29.375 C28 32 28 32 28 34 C22.39 34 16.78 34 11 34 C10.484375 32.246875 9.96875 30.49375 9.4375 28.6875 C7.32502433 21.77810303 4.84959804 15.02822139 2.28686523 8.27416992 C1.99110596 7.48888916 1.69534668 6.7036084 1.390625 5.89453125 C1.12282227 5.19175049 0.85501953 4.48896973 0.57910156 3.76489258 C0 2 0 2 0 0 Z " fill="#F9FBF4" transform="translate(354,147)"/>
<path d="M0 0 C3.3 0 6.6 0 10 0 C8.18339304 8.33502017 5.61011372 15.95618233 2.42553711 23.85498047 C2.12784424 24.59377441 1.83015137 25.33256836 1.5234375 26.09375 C1.25450684 26.75052734 0.98557617 27.40730469 0.70849609 28.08398438 C-0.1557561 30.31422774 -0.1557561 30.31422774 -1 34 C-6.28 34 -11.56 34 -17 34 C-14.75192472 27.25577417 -14.75192472 27.25577417 -12.79296875 23.828125 C-12.37321777 23.08546387 -11.9534668 22.34280273 -11.52099609 21.57763672 C-11.08094238 20.8095166 -10.64088867 20.04139648 -10.1875 19.25 C-6.6070999 12.9124728 -3.17172645 6.55490133 0 0 Z " fill="#F9FBF4" transform="translate(259,147)"/>
<path d="M0 0 C11.22 0 22.44 0 34 0 C34 5.94 34 11.88 34 18 C33.34 18 32.68 18 32 18 C32 12.39 32 6.78 32 1 C21.77 1 11.54 1 1 1 C1.33 50.5 1.66 100 2 151 C4.54807844 152.27403922 6.32237827 152.12300349 9.17581177 152.12025452 C10.27240112 152.12162918 11.36899048 152.12300385 12.49880981 152.12442017 C14.311418 152.11902725 14.311418 152.11902725 16.16064453 152.11352539 C17.42890076 152.11367142 18.69715698 152.11381744 20.00384521 152.1139679 C23.48710085 152.11425548 26.97032223 152.108365 30.45356989 152.10139394 C34.09175602 152.09515397 37.72994289 152.09455609 41.36813354 152.09336853 C48.26002177 152.09025712 55.15189418 152.08204628 62.04377544 152.07201904 C69.88889407 152.06085202 77.73401344 152.05534597 85.57913804 152.05032361 C101.71943463 152.03986352 117.8597153 152.02226774 134 152 C134.33 152.66 134.66 153.32 135 154 C90.45 154 45.9 154 0 154 C0 103.18 0 52.36 0 0 Z " fill="#EBF3DB" transform="translate(197,184)"/>
<path d="M0 0 C2.79587847 2.1463822 3.87631903 3.33885244 4.53125 6.83984375 C4.44806098 15.08595561 4.44806098 15.08595561 2.4375 19.1875 C-0.72005789 21.53542766 -3.10300292 21.85566677 -7 22 C-7.66 21.67 -8.32 21.34 -9 21 C-9 24.63 -9 28.26 -9 32 C-9.66 32 -10.32 32 -11 32 C-11 22.1 -11 12.2 -11 2 C-4.5483871 -0.58064516 -4.5483871 -0.58064516 0 0 Z " fill="#F7F7F7" transform="translate(372,459)"/>
<path d="M0 0 C11.22 0 22.44 0 34 0 C34 44.55 34 89.1 34 135 C31.53721199 132.53721199 31.00228745 130.29323018 30 127 C31.485 127.495 31.485 127.495 33 128 C32.97021844 127.34138033 32.94043688 126.68276066 32.90975285 126.00418282 C32.19173955 109.78217947 31.86110779 93.60375259 31.90234375 77.3671875 C31.90421691 75.13990308 31.90563655 72.91261824 31.90663147 70.68533325 C31.91038611 64.9218627 31.92015287 59.15841878 31.93133545 53.3949585 C31.94170447 47.47424682 31.9461617 41.5535307 31.95117188 35.6328125 C31.96178417 24.0885283 31.97932047 12.54427056 32 1 C21.77 1 11.54 1 1 1 C1 6.61 1 12.22 1 18 C0.67 18 0.34 18 0 18 C0 12.06 0 6.12 0 0 Z " fill="#FDFFF3" transform="translate(393,184)"/>
<path d="M0 0 C4.11520066 0.20424709 6.22518117 1.51489238 9.125 4.5 C11.125 7.5 11.125 7.5 11 10.9375 C10.02624316 14.90208143 9.50111932 16.24925379 6.125 18.5 C3.38128244 19.43561917 1.01501989 19.80903183 -1.875 19.5 C-4.875 17.6875 -4.875 17.6875 -6.875 14.5 C-7.61369084 10.09626617 -7.82493722 6.17822242 -5.5859375 2.22265625 C-3.875 0.5 -3.875 0.5 0 0 Z " fill="#F2F2F2" transform="translate(176.875,459.5)"/>
<path d="M0 0 C4.57808669 0.74744272 7.05742336 2.18300302 9.875 5.875 C11.21485319 8.83678073 11.70155531 10.30472347 11.0625 13.5 C8.625 16.25 8.625 16.25 6.0625 18.5 C5.7325 18.83 5.4025 19.16 5.0625 19.5 C-2.03651455 20.19826373 -2.03651455 20.19826373 -5.4375 17.5625 C-7.46620807 13.42055436 -7.74016611 10.02933018 -6.9375 5.5 C-4.99626037 1.84150993 -4.1076676 0.69917746 0 0 Z " fill="#F5F5F5" transform="translate(455.9375,460.5)"/>
<path d="M0 0 C13.71700117 -0.09267889 27.43392786 -0.16375462 41.15117836 -0.20724869 C47.52065719 -0.22812364 53.8899218 -0.2564403 60.25927734 -0.30175781 C66.40602092 -0.34521779 72.55255845 -0.3691378 78.69944382 -0.37950897 C81.04461282 -0.38689998 83.38977055 -0.4013328 85.73485184 -0.42292023 C89.01960881 -0.45195529 92.30351426 -0.45595583 95.58837891 -0.45410156 C97.04278885 -0.47567322 97.04278885 -0.47567322 98.52658081 -0.49768066 C104.33676105 -0.46218852 107.54795745 0.17975958 112 4 C113.41552734 5.92285156 113.41552734 5.92285156 114.3359375 7.890625 C114.67753906 8.59960938 115.01914062 9.30859375 115.37109375 10.0390625 C115.70238281 10.76867187 116.03367187 11.49828125 116.375 12.25 C116.72949219 12.99507812 117.08398438 13.74015625 117.44921875 14.5078125 C118.314334 16.33156897 119.15925886 18.16487974 120 20 C118.515 19.505 118.515 19.505 117 19 C117 18.34 117 17.68 117 17 C115.68 17.33 114.36 17.66 113 18 C113.99 19.485 113.99 19.485 115 21 C115.70812814 23.32108669 116.38024152 25.65377147 117 28 C116.34 28.33 115.68 28.66 115 29 C114.74943848 28.42967041 114.49887695 27.85934082 114.24072266 27.27172852 C113.0753803 24.68181458 111.85168552 22.1238926 110.625 19.5625 C110.23183594 18.66466797 109.83867187 17.76683594 109.43359375 16.84179688 C108.14268554 14.21033014 107.017128 12.13279157 105 10 C101.61427365 8.92411985 98.53082664 8.79161624 95 9 C95 8.67 95 8.34 95 8 C98.63 8 102.26 8 106 8 C106.33 6.68 106.66 5.36 107 4 C103.89641177 1.93094118 103.21052791 1.7470002 99.69099426 1.7215271 C98.81179825 1.71036362 97.93260223 1.69920013 97.02676392 1.68769836 C96.06507294 1.68553818 95.10338196 1.68337799 94.11254883 1.68115234 C93.09773941 1.67110672 92.08292999 1.6610611 91.03736877 1.65071106 C87.67726212 1.61977748 84.31723551 1.60281556 80.95703125 1.5859375 C78.62960618 1.56723405 76.30218796 1.54766127 73.97477722 1.5272522 C67.84441146 1.47583812 61.7140237 1.43626202 55.58355713 1.39910889 C49.3297375 1.35912736 43.07601014 1.30800836 36.82226562 1.2578125 C24.54824182 1.16094338 12.27416602 1.07657378 0 1 C0 0.67 0 0.34 0 0 Z " fill="#A6B680" transform="translate(259,138)"/>
<path d="M0 0 C3.63 0 7.26 0 11 0 C11 0.33 11 0.66 11 1 C7.7 1 4.4 1 1 1 C0.90203125 1.76699219 0.8040625 2.53398437 0.703125 3.32421875 C-0.77551649 14.29930777 -2.86346112 25.13692825 -5 36 C-8.96 35.505 -8.96 35.505 -13 35 C-12.38074426 27.54205192 -11.26293646 20.23749511 -9.9375 12.875 C-9.75123047 11.823125 -9.56496094 10.77125 -9.37304688 9.6875 C-8.9186809 7.12440989 -8.4598126 4.5621186 -8 2 C-11.3 2 -14.6 2 -18 2 C-18 1.67 -18 1.34 -18 1 C-14.37 1 -10.74 1 -7 1 C-6.67 3.97 -6.34 6.94 -6 10 C-1.97677419 8.52821402 -1.97677419 8.52821402 -1.171875 6.0546875 C-1.03265625 5.33539063 -0.8934375 4.61609375 -0.75 3.875 C-0.5025 2.59625 -0.255 1.3175 0 0 Z " fill="#9AAC6E" transform="translate(296,145)"/>
<path d="M0 0 C0.99 0.33 1.98 0.66 3 1 C5.06498892 1.08315752 7.1325789 1.10735878 9.19921875 1.09765625 C11.01196289 1.09282227 11.01196289 1.09282227 12.86132812 1.08789062 C14.12396484 1.07951172 15.38660156 1.07113281 16.6875 1.0625 C17.96173828 1.05798828 19.23597656 1.05347656 20.54882812 1.04882812 C23.69926564 1.03702873 26.84960949 1.02056597 30 1 C30.6696182 4.27183556 31.21539512 7.4902104 31.5625 10.8125 C31.64628906 11.60269531 31.73007812 12.39289063 31.81640625 13.20703125 C31.87699219 13.79871094 31.93757813 14.39039063 32 15 C29.9375 13 29.9375 13 28 10 C28.33 7.36 28.66 4.72 29 2 C21.08 2 13.16 2 5 2 C7.37220604 7.00579922 7.37220604 7.00579922 9.78759766 11.99072266 C11.43994435 15.61668012 12.14540157 17.33240356 11.2734375 21.3359375 C10.85320312 22.21507812 10.43296875 23.09421875 10 24 C9.67 24.99 9.34 25.98 9 27 C8.34 27 7.68 27 7 27 C3.04 19.08 -0.92 11.16 -5 3 C-3.68 2.67 -2.36 2.34 -1 2 C-0.67 1.34 -0.34 0.68 0 0 Z " fill="#99AB6C" transform="translate(344,361)"/>
<path d="M0 0 C0.66 0.33 1.32 0.66 2 1 C1.43410156 1.59107198 0.86820313 2.18214396 0.28515625 2.7911272 C-6.98161476 11.34168016 -7.13239986 18.86820987 -7 29.49682617 C-7.00761852 31.24228712 -7.01874779 32.9877357 -7.03309631 34.7331543 C-7.06196232 39.44149668 -7.0420919 44.14848904 -7.0130806 48.85678267 C-6.9911111 53.78824984 -7.01450098 58.71950351 -7.03295898 63.6509552 C-7.06103078 72.97578993 -7.04865462 82.30010901 -7.02153492 91.62492877 C-6.99262877 102.24657791 -7.00913563 112.86800718 -7.02934647 123.48965871 C-7.069886 145.3265692 -7.05375542 167.16313132 -7 189 C-7.33 189 -7.66 189 -8 189 C-8.09345172 165.78223282 -8.16398338 142.56449667 -8.20724869 119.34657955 C-8.2278717 108.56603139 -8.25598742 97.7856001 -8.30175781 87.00512695 C-8.34163343 77.60858999 -8.36743471 68.21213767 -8.37635398 58.81551844 C-8.38156747 53.84029922 -8.39381582 48.86532217 -8.42292023 43.89018059 C-8.4501007 39.20590104 -8.45843964 34.52196307 -8.45243073 29.83761215 C-8.45352978 28.1199349 -8.46146803 26.40224605 -8.4768219 24.68463707 C-8.49679163 22.3351126 -8.49191462 19.98686938 -8.48101807 17.63731384 C-8.48470524 16.32375884 -8.48839241 15.01020384 -8.49219131 13.65684414 C-7.7851406 8.40365457 -5.84102552 4.58532753 -1.75 1.0625 C-1.1725 0.711875 -0.595 0.36125 0 0 Z " fill="#9FAB79" transform="translate(180,161)"/>
<path d="M0 0 C0.70616959 -0.00540298 1.41233917 -0.01080597 2.13990784 -0.01637268 C4.46935202 -0.02885893 6.79755992 -0.01237119 9.12695312 0.00561523 C10.74833236 0.00546024 12.36971198 0.00397123 13.99108887 0.00120544 C17.38729249 -0.00017849 20.78307378 0.01237818 24.17919922 0.03515625 C28.53064007 0.06354118 32.88137923 0.06080365 37.23287201 0.04806614 C40.58036279 0.04110829 43.92769164 0.04889939 47.27516174 0.06132317 C48.87951537 0.06583666 50.48388639 0.06617535 52.08824158 0.06225777 C54.3313251 0.05934442 56.57344461 0.07585694 58.81640625 0.09765625 C60.09229614 0.10305923 61.36818604 0.10846222 62.68273926 0.11402893 C66.08515729 0.52297774 67.53672083 1.06474733 69.90820312 3.50170898 C69.90820312 4.16170898 69.90820312 4.82170898 69.90820312 5.50170898 C68.58820313 5.17170898 67.26820313 4.84170898 65.90820312 4.50170898 C65.90820312 3.84170898 65.90820312 3.18170898 65.90820312 2.50170898 C56.85052744 2.38585841 47.79310675 2.29701634 38.73485184 2.24264812 C34.52869753 2.21655387 30.32305008 2.18116011 26.1171875 2.12451172 C22.05822521 2.07018405 17.99975039 2.04028715 13.94045258 2.02732277 C12.39183629 2.01808407 10.84324669 2.00004253 9.29483795 1.9730587 C7.12533434 1.93675486 4.95784443 1.93176367 2.78808594 1.93408203 C1.5534259 1.92297897 0.31876587 1.91187592 -0.95330811 1.9004364 C-4.23336184 2.24299149 -4.23336184 2.24299149 -6.4876709 4.70910645 C-8.21077228 7.70883176 -8.6037167 9.32763086 -8.63769531 12.75097656 C-8.65741394 13.77165726 -8.67713257 14.79233795 -8.69744873 15.84394836 C-8.69867737 16.93370468 -8.69990601 18.023461 -8.70117188 19.14624023 C-8.71770813 20.27116379 -8.73424438 21.39608734 -8.75128174 22.55509949 C-8.7997947 26.14152469 -8.82114096 29.72752572 -8.84179688 33.31420898 C-8.86995365 35.74847515 -8.89988065 38.18272154 -8.93164062 40.61694336 C-9.00555469 46.57845482 -9.05717798 52.53984682 -9.09179688 58.50170898 C-9.75179688 58.50170898 -10.41179687 58.50170898 -11.09179688 58.50170898 C-11.19313723 50.88463695 -11.26323748 43.26773846 -11.31152344 35.65014648 C-11.33165063 33.05828352 -11.35895503 30.46646603 -11.39355469 27.87475586 C-11.44202189 24.1513345 -11.46475504 20.42851299 -11.48242188 16.70483398 C-11.50306702 15.54429504 -11.52371216 14.3837561 -11.54498291 13.18804932 C-11.54528503 12.10723083 -11.54558716 11.02641235 -11.54589844 9.9128418 C-11.55922211 8.48720917 -11.55922211 8.48720917 -11.57281494 7.03277588 C-10.33000992 0.49326546 -5.91560575 0.00077043 0 0 Z " fill="#99A974" transform="translate(282.091796875,239.498291015625)"/>
<path d="M0 0 C2.5 1 2.5 1 4 3 C4.32603594 5.75500373 4.18314114 8.2070976 4 11 C-0.95 11 -5.9 11 -11 11 C-9.59153878 15.82616876 -9.59153878 15.82616876 -7.171875 17.3046875 C-4.73629095 18.08442484 -2.80163034 18.20004795 -0.25 18.125 C0.94882812 18.09792969 0.94882812 18.09792969 2.171875 18.0703125 C2.77515625 18.04710937 3.3784375 18.02390625 4 18 C4 18.66 4 19.32 4 20 C0.89046621 21.5547669 -1.56266761 21.28644437 -5 21 C-8.70390021 18.97333762 -10.65363011 17.51955484 -13 14 C-13.22759262 9.45573394 -12.77588978 5.30349483 -10.4375 1.375 C-6.91661099 -0.61114252 -3.94738481 -0.63902336 0 0 Z " fill="#393939" transform="translate(275,460)"/>
<path d="M0 0 C1.90625 0.4140625 1.90625 0.4140625 4.40625 1.9765625 C5.90625 4.4140625 5.90625 4.4140625 5.90625 11.4140625 C0.95625 11.4140625 -3.99375 11.4140625 -9.09375 11.4140625 C-7.60373776 16.26381912 -7.60373776 16.26381912 -4.96875 18.2265625 C-1.11882023 19.81675088 1.75938784 19.6249199 5.90625 19.4140625 C5.57625 20.0740625 5.24625 20.7340625 4.90625 21.4140625 C-1.64650444 23.10874037 -1.64650444 23.10874037 -5.14453125 21.4296875 C-9.68350639 18.23454972 -9.68350639 18.23454972 -11.09375 15.4140625 C-11.13574565 10.66855434 -10.66216017 6.55088285 -8.53125 2.2890625 C-5.53293272 -0.01733541 -3.71258436 -0.26320561 0 0 Z " fill="#303030" transform="translate(329.09375,459.5859375)"/>
<path d="M0 0 C3.875 0.5625 3.875 0.5625 5.6171875 1.828125 C7.22844661 4.04986116 7.09915532 5.1711265 6.875 7.875 C6.70615728 12.18048926 7.58299224 14.83798739 9.875 18.5625 C8.885 18.5625 7.895 18.5625 6.875 18.5625 C5.885 16.5825 4.895 14.6025 3.875 12.5625 C2.885 13.2225 1.895 13.8825 0.875 14.5625 C-1.88520996 14.93417184 -4.31352476 14.74100636 -7.125 14.5625 C-9.125 12.5625 -9.125 12.5625 -9.5625 9.8125 C-8.7954675 4.11454428 -5.92454315 0.22954872 0 0 Z " fill="#F0F0F0" transform="translate(396.125,461.4375)"/>
<path d="M0 0 C4.05644724 0.72436558 5.79894179 1.51469054 8.5 4.625 C8.875 7.8125 8.875 7.8125 8.5 10.625 C7.5 11.625 7.5 11.625 4.33984375 11.72265625 C2.40818359 11.70525391 2.40818359 11.70525391 0.4375 11.6875 C-0.85285156 11.67847656 -2.14320312 11.66945313 -3.47265625 11.66015625 C-4.47167969 11.64855469 -5.47070312 11.63695312 -6.5 11.625 C-5.12236768 15.50376608 -5.12236768 15.50376608 -2.3125 18.4375 C1.11674383 19.88540295 3.81374727 19.8418384 7.5 19.625 C7.17 20.285 6.84 20.945 6.5 21.625 C0.40932974 22.04504622 -2.60816881 21.6816405 -7.5 17.625 C-9.24885295 14.1272941 -9.05614521 10.44130677 -8.5 6.625 C-6.66253901 2.56281046 -4.46258118 0.7968895 0 0 Z " fill="#2F2F2F" transform="translate(117.5,458.375)"/>
<path d="M0 0 C2.84533466 0.51070109 3.78488444 1.08904631 5.4375 3.4375 C5.4375 4.4275 5.4375 5.4175 5.4375 6.4375 C6.0975 6.4375 6.7575 6.4375 7.4375 6.4375 C7.685 5.81875 7.9325 5.2 8.1875 4.5625 C9.69572744 1.99851336 10.61386058 1.32492953 13.4375 0.4375 C16 0.4375 16 0.4375 18.4375 1.4375 C21.58939983 6.31544022 21.82215804 10.22130011 21.625 15.8125 C21.60469727 16.91658203 21.60469727 16.91658203 21.58398438 18.04296875 C21.54894869 19.84146743 21.49515288 21.63958422 21.4375 23.4375 C20.7775 23.4375 20.1175 23.4375 19.4375 23.4375 C19.37691406 22.40109375 19.31632812 21.3646875 19.25390625 20.296875 C19.16946629 18.92707127 19.08482003 17.55728025 19 16.1875 C18.96068359 15.50558594 18.92136719 14.82367188 18.88085938 14.12109375 C18.67083528 10.79301959 18.41815998 7.63494598 17.4375 4.4375 C13.33800137 4.02795592 13.33800137 4.02795592 9.77026367 5.69848633 C8.18311325 7.76942834 8.02291624 8.86542798 7.92578125 11.44921875 C7.89033203 12.20654297 7.85488281 12.96386719 7.81835938 13.74414062 C7.79580078 14.52982422 7.77324219 15.31550781 7.75 16.125 C7.71583984 16.92228516 7.68167969 17.71957031 7.64648438 18.54101562 C7.56411896 20.50601904 7.49912933 22.47173696 7.4375 24.4375 C6.7775 24.1075 6.1175 23.7775 5.4375 23.4375 C5.04272461 21.70336914 5.04272461 21.70336914 4.83984375 19.47265625 C4.76056641 18.67279297 4.68128906 17.87292969 4.59960938 17.04882812 C4.52548828 16.20771484 4.45136719 15.36660156 4.375 14.5 C4.22081443 12.84473504 4.06341192 11.18976566 3.90234375 9.53515625 C3.836521 8.79789307 3.77069824 8.06062988 3.70288086 7.30102539 C3.52525814 5.34914514 3.52525814 5.34914514 2.4375 3.4375 C0.7875 3.4375 -0.8625 3.4375 -2.5625 3.4375 C-7.13368142 9.778171 -7.33146131 15.75546353 -7.5625 23.4375 C-8.2225 23.4375 -8.8825 23.4375 -9.5625 23.4375 C-9.5625 16.5075 -9.5625 9.5775 -9.5625 2.4375 C-8.9025 2.1075 -8.2425 1.7775 -7.5625 1.4375 C-7.2325 2.4275 -6.9025 3.4175 -6.5625 4.4375 C-6.005625 3.7775 -5.44875 3.1175 -4.875 2.4375 C-2.5625 0.4375 -2.5625 0.4375 0 0 Z " fill="#3A3A3A" transform="translate(492.5625,459.5625)"/>
<path d="M0 0 C3.5 0.5 3.5 0.5 5.4375 3 C5.788125 3.825 6.13875 4.65 6.5 5.5 C7.20125 4.675 7.9025 3.85 8.625 3 C11.5 0.5 11.5 0.5 14.625 0 C17.5 0.5 17.5 0.5 19.3125 1.8125 C22.10616716 5.78244808 21.61506556 10.05768762 21.5625 14.6875 C21.55798828 15.43708984 21.55347656 16.18667969 21.54882812 16.95898438 C21.53706354 18.80602383 21.51912865 20.65302213 21.5 22.5 C20.84 22.5 20.18 22.5 19.5 22.5 C19.43941406 21.47519531 19.37882812 20.45039063 19.31640625 19.39453125 C19.23194974 18.03384305 19.14730433 16.67316657 19.0625 15.3125 C19.02318359 14.63896484 18.98386719 13.96542969 18.94335938 13.27148438 C18.71072435 9.60300898 18.32792989 6.08305794 17.5 2.5 C12.50584015 3.43815931 12.50584015 3.43815931 8.78125 6.625 C7.18188874 10.21381063 7.20277813 12.89908664 7.3125 16.8125 C7.33957031 18.06675781 7.36664063 19.32101562 7.39453125 20.61328125 C7.44673828 22.04220703 7.44673828 22.04220703 7.5 23.5 C6.84 23.5 6.18 23.5 5.5 23.5 C5.37882813 22.31921875 5.25765625 21.1384375 5.1328125 19.921875 C4.9639448 18.36453957 4.79465165 16.80725023 4.625 15.25 C4.54636719 14.47269531 4.46773437 13.69539063 4.38671875 12.89453125 C3.79334559 7.44283448 3.79334559 7.44283448 1.5 2.5 C-0.91585574 2.53093173 -0.91585574 2.53093173 -3.5 3.5 C-6.28981419 7.95297265 -6.94219272 11.67448573 -7.1875 16.875 C-7.28611328 18.74285156 -7.28611328 18.74285156 -7.38671875 20.6484375 C-7.42410156 21.58945312 -7.46148437 22.53046875 -7.5 23.5 C-8.16 23.5 -8.82 23.5 -9.5 23.5 C-9.5 16.24 -9.5 8.98 -9.5 1.5 C-8.84 1.5 -8.18 1.5 -7.5 1.5 C-7.17 2.16 -6.84 2.82 -6.5 3.5 C-6.149375 3.005 -5.79875 2.51 -5.4375 2 C-3.5 0.5 -3.5 0.5 0 0 Z " fill="#373737" transform="translate(201.5,458.5)"/>
<path d="M0 0 C3.67301925 0.52471704 4.76482915 1.60959742 7.0625 4.4375 C7.743125 3.7775 8.42375 3.1175 9.125 2.4375 C12.70707375 -0.00135872 14.81769536 0.10457415 19.0625 0.4375 C20.72924321 3.35574244 21.3057008 5.41344379 21.2578125 8.765625 C21.25136719 9.56484375 21.24492187 10.3640625 21.23828125 11.1875 C21.22152344 12.0125 21.20476562 12.8375 21.1875 13.6875 C21.17847656 14.52796875 21.16945313 15.3684375 21.16015625 16.234375 C21.13665817 18.30220604 21.10078908 20.36988995 21.0625 22.4375 C20.4025 22.1075 19.7425 21.7775 19.0625 21.4375 C19.00191406 20.22191406 18.94132812 19.00632812 18.87890625 17.75390625 C18.79451668 16.16925772 18.7098679 14.58462298 18.625 13 C18.58568359 12.19755859 18.54636719 11.39511719 18.50585938 10.56835938 C18.6570704 6.68510439 18.6570704 6.68510439 17.0625 3.4375 C14.69028044 2.93614801 14.69028044 2.93614801 12.0625 3.4375 C8.0119417 7.32394729 7.42610122 10.85394194 7.3125 16.25 C7.26802734 17.28930664 7.26802734 17.28930664 7.22265625 18.34960938 C7.15250372 20.04496213 7.10517338 21.74123312 7.0625 23.4375 C6.7325 23.4375 6.4025 23.4375 6.0625 23.4375 C5.0725 16.8375 4.0825 10.2375 3.0625 3.4375 C1.0825 3.4375 -0.8975 3.4375 -2.9375 3.4375 C-6.39173401 9.89541576 -6.62191919 16.20090555 -6.9375 23.4375 C-7.5975 23.4375 -8.2575 23.4375 -8.9375 23.4375 C-8.9375 16.1775 -8.9375 8.9175 -8.9375 1.4375 C-8.2775 1.4375 -7.6175 1.4375 -6.9375 1.4375 C-6.6075 2.0975 -6.2775 2.7575 -5.9375 3.4375 C-5.56625 2.9425 -5.195 2.4475 -4.8125 1.9375 C-2.9375 0.4375 -2.9375 0.4375 0 0 Z " fill="#232323" transform="translate(235.9375,458.5625)"/>
<path d="M0 0 C0.33 0 0.66 0 1 0 C1 44.55 1 89.1 1 135 C-1.46278801 132.53721199 -1.99771255 130.29323018 -3 127 C-2.01 127.33 -1.02 127.66 0 128 C0 85.76 0 43.52 0 0 Z " fill="#D8E1BF" transform="translate(426,184)"/>
<path d="M0 0 C2.79587847 2.1463822 3.87631903 3.33885244 4.53125 6.83984375 C4.44806098 15.08595561 4.44806098 15.08595561 2.4375 19.1875 C-0.72005789 21.53542766 -3.10300292 21.85566677 -7 22 C-7.66 21.67 -8.32 21.34 -9 21 C-9 24.63 -9 28.26 -9 32 C-9.66 32 -10.32 32 -11 32 C-11 22.1 -11 12.2 -11 2 C-4.5483871 -0.58064516 -4.5483871 -0.58064516 0 0 Z M-9 6 C-9.51997992 9.23820004 -9.51997992 9.23820004 -9.3125 12.6875 C-9.28800781 13.84636719 -9.26351563 15.00523437 -9.23828125 16.19921875 C-9.31128704 18.90358622 -9.31128704 18.90358622 -8 20 C-3.89705838 20.41624598 -3.89705838 20.41624598 -0.25 18.8125 C2.60023784 14.67965514 3.53280613 11.00837766 3 6 C1.96057155 3.55754253 1.96057155 3.55754253 0 2 C-4.48043961 1.08093547 -6.28282498 2.51219762 -9 6 Z " fill="#3D3D3D" transform="translate(372,459)"/>
<path d="M0 0 C0.66 1.32 1.32 2.64 2 4 C1.566875 4.37125 1.13375 4.7425 0.6875 5.125 C-1.5599052 7.4549879 -1.5599052 7.4549879 -4 13 C21.08 13 46.16 13 72 13 C72 11.02 72 9.04 72 7 C75 10.625 75 10.625 75 14 C48.27 14 21.54 14 -6 14 C-4.7290827 10.1872481 -3.66918099 7.09374991 -1.875 3.625 C-1.34519531 2.59246094 -1.34519531 2.59246094 -0.8046875 1.5390625 C-0.53914063 1.03117187 -0.27359375 0.52328125 0 0 Z " fill="#FBFEEC" transform="translate(277,377)"/>
<path d="M0 0 C4.57808669 0.74744272 7.05742336 2.18300302 9.875 5.875 C11.21485319 8.83678073 11.70155531 10.30472347 11.0625 13.5 C8.625 16.25 8.625 16.25 6.0625 18.5 C5.7325 18.83 5.4025 19.16 5.0625 19.5 C-2.03651455 20.19826373 -2.03651455 20.19826373 -5.4375 17.5625 C-7.46620807 13.42055436 -7.74016611 10.02933018 -6.9375 5.5 C-4.99626037 1.84150993 -4.1076676 0.69917746 0 0 Z M-2.9375 2.5 C-5.61884316 6.52201474 -5.61844539 9.77594136 -4.9375 14.5 C-3.51705419 17.25609295 -3.51705419 17.25609295 -0.9375 18.5 C2.70102248 18.5 4.50933224 17.90759729 7.4375 15.75 C9.21235642 13.61694386 9.21235642 13.61694386 9.5625 11.0625 C8.90195115 7.67718713 7.40702246 5.98243554 5.0625 3.5 C2.27386993 2.10568496 0.14171132 2.24339906 -2.9375 2.5 Z " fill="#333333" transform="translate(455.9375,460.5)"/>
<path d="M0 0 C3.875 0.5625 3.875 0.5625 5.6171875 1.828125 C7.22844661 4.04986116 7.09915532 5.1711265 6.875 7.875 C6.70615728 12.18048926 7.58299224 14.83798739 9.875 18.5625 C8.885 18.5625 7.895 18.5625 6.875 18.5625 C5.885 16.5825 4.895 14.6025 3.875 12.5625 C2.885 13.2225 1.895 13.8825 0.875 14.5625 C-1.88520996 14.93417184 -4.31352476 14.74100636 -7.125 14.5625 C-9.125 12.5625 -9.125 12.5625 -9.5625 9.8125 C-8.7954675 4.11454428 -5.92454315 0.22954872 0 0 Z M-4.875 3.75 C-7.33286086 6.32892213 -7.33286086 6.32892213 -7.5 9.3125 C-7.35507345 11.52617261 -7.35507345 11.52617261 -6.125 12.5625 C-1.46703151 13.015335 -1.46703151 13.015335 2.75 11.375 C4.20321535 9.03370861 4.73710522 7.32039551 4.875 4.5625 C3.79166667 2.64583333 3.79166667 2.64583333 1.875 1.5625 C-2.18891983 1.14748429 -2.18891983 1.14748429 -4.875 3.75 Z " fill="#363636" transform="translate(396.125,461.4375)"/>
<path d="M0 0 C4.11520066 0.20424709 6.22518117 1.51489238 9.125 4.5 C11.125 7.5 11.125 7.5 11 10.9375 C10.02624316 14.90208143 9.50111932 16.24925379 6.125 18.5 C3.38128244 19.43561917 1.01501989 19.80903183 -1.875 19.5 C-4.875 17.6875 -4.875 17.6875 -6.875 14.5 C-7.61369084 10.09626617 -7.82493722 6.17822242 -5.5859375 2.22265625 C-3.875 0.5 -3.875 0.5 0 0 Z M-4.875 4.5 C-5.34940869 6.90513863 -5.34940869 6.90513863 -5.25 9.5 C-5.25773438 10.36625 -5.26546875 11.2325 -5.2734375 12.125 C-4.80111064 14.94043851 -4.15205585 15.8244306 -1.875 17.5 C1.03940699 18.16721536 1.03940699 18.16721536 4.125 17.5 C7.18807631 15.52033737 7.18807631 15.52033737 9.125 12.5 C9.29521922 8.41473868 8.39291279 6.84233301 5.875 3.625 C3.34158537 1.33606251 3.34158537 1.33606251 0.5 1 C-2.34148859 1.59820813 -3.11628679 2.22166698 -4.875 4.5 Z " fill="#353535" transform="translate(176.875,459.5)"/>
<path d="M0 0 C3.63 0 7.26 0 11 0 C10.67 1.32 10.34 2.64 10 4 C9.67 3.01 9.34 2.02 9 1 C6.36 1 3.72 1 1 1 C1 11.23 1 21.46 1 32 C5.29 32 9.58 32 14 32 C14 29.36 14 26.72 14 24 C16 27 16 27 16 34 C10.72 34 5.44 34 0 34 C0 22.78 0 11.56 0 0 Z " fill="#FAFDED" transform="translate(316,147)"/>
<path d="M0 0 C2.8125 2.375 2.8125 2.375 5 5 C5 5.66 5 6.32 5 7 C4.34 7 3.68 7 3 7 C2.566875 6.34 2.13375 5.68 1.6875 5 C0.15610081 2.77941507 0.15610081 2.77941507 -2.4375 2.4375 C-5.13416427 2.83526131 -5.13416427 2.83526131 -7.3125 4.8125 C-9.71702787 9.35438598 -9.90305637 13.9477657 -9 19 C-6.11400612 21.35618542 -6.11400612 21.35618542 -2.5 20.8125 C0.84354588 20.03631971 2.01559292 19.68478605 4 17 C4.66 17.33 5.32 17.66 6 18 C3.90050565 20.70902496 2.2529027 22.73024693 -1.1953125 23.47265625 C-4.81231451 23.6099352 -7.32091549 23.34782377 -10.5625 21.6875 C-12.92235099 17.27560468 -12.71350656 12.88151516 -12 8 C-9.31385307 2.7203319 -6.29969859 -1.04994976 0 0 Z " fill="#434343" transform="translate(160,459)"/>
<path d="M0 0 C3.43446337 0.18733437 6.05083922 0.35702012 8.9375 2.3125 C10 4 10 4 10 8 C5.38 8 0.76 8 -4 8 C-2 2 -2 2 0 0 Z " fill="#E6E6E6" transform="translate(268,461)"/>
<path d="M0 0 C2 2 2 2 2 7 C-2.29 7 -6.58 7 -11 7 C-10 2 -10 2 -8.875 0.125 C-5.81663109 -1.71002135 -3.34391796 -0.79038061 0 0 Z " fill="#EEEEEE" transform="translate(122,461)"/>
<path d="M0 0 C3 0.375 3 0.375 4.9375 1.5625 C6 3.375 6 3.375 5.6875 6.0625 C5.460625 6.825625 5.23375 7.58875 5 8.375 C4.67 8.375 4.34 8.375 4 8.375 C3.67 6.725 3.34 5.075 3 3.375 C1.02 3.375 -0.96 3.375 -3 3.375 C-6.45423401 9.83291576 -6.68441919 16.13840555 -7 23.375 C-7.66 23.375 -8.32 23.375 -9 23.375 C-9 16.115 -9 8.855 -9 1.375 C-8.34 1.375 -7.68 1.375 -7 1.375 C-6.67 2.035 -6.34 2.695 -6 3.375 C-5.62875 2.88 -5.2575 2.385 -4.875 1.875 C-3 0.375 -3 0.375 0 0 Z " fill="#373737" transform="translate(236,458.625)"/>
<path d="M0 0 C2 2 2 2 2 7 C-1.96 7 -5.92 7 -10 7 C-9.625 4.0625 -9.625 4.0625 -9 1 C-5.98675805 -0.50662097 -3.31713623 -0.17770373 0 0 Z " fill="#F6F6F6" transform="translate(331,462)"/>
<path d="M0 0 C0.66 0 1.32 0 2 0 C2 1.65 2 3.3 2 5 C3.65 5 5.3 5 7 5 C4 7 4 7 1 7 C1.14100857 9.27113803 1.28796755 11.54190725 1.4375 13.8125 C1.51871094 15.07707031 1.59992188 16.34164063 1.68359375 17.64453125 C1.87184547 20.99181893 1.87184547 20.99181893 3 24 C5.01508358 24.73323796 5.01508358 24.73323796 7 25 C7 25.66 7 26.32 7 27 C2.25 26.25 2.25 26.25 0 24 C-1.21321333 20.61215901 -1.10128696 17.31840018 -1.0625 13.75 C-1.05347656 12.67234375 -1.04445313 11.5946875 -1.03515625 10.484375 C-1.02355469 9.66453125 -1.01195312 8.8446875 -1 8 C-2.65 8 -4.3 8 -6 8 C-6 7.34 -6 6.68 -6 6 C-4.02 6 -2.04 6 0 6 C0 4.02 0 2.04 0 0 Z " fill="#414141" transform="translate(416,455)"/>
<path d="M0 0 C0.66 0.33 1.32 0.66 2 1 C1.319375 1.763125 0.63875 2.52625 -0.0625 3.3125 C-0.701875 4.199375 -1.34125 5.08625 -2 6 C-1.67 6.99 -1.34 7.98 -1 9 C-1.33 9.66 -1.66 10.32 -2 11 C-1.34 11 -0.68 11 0 11 C-0.61538462 17.52307692 -0.61538462 17.52307692 -2.5625 19.9375 C-3.036875 20.288125 -3.51125 20.63875 -4 21 C-5 14.25 -5 14.25 -5 12 C-5.66 12 -6.32 12 -7 12 C-7 12.99 -7 13.98 -7 15 C-7.66 15 -8.32 15 -9 15 C-7.564062 9.77840726 -5.22421694 5.329958 -2 1 C-1.34 0.67 -0.68 0.34 0 0 Z " fill="#9CAD73" transform="translate(256,139)"/>
<path d="M0 0 C1.32 0 2.64 0 4 0 C4 0.66 4 1.32 4 2 C3.19175781 2.33644531 2.38351562 2.67289062 1.55078125 3.01953125 C-1.14347228 4.69086516 -1.14347228 4.69086516 -1.50634766 7.02099609 C-1.71824473 9.58489909 -1.79556293 12.11494699 -1.8125 14.6875 C-1.83763672 15.58017578 -1.86277344 16.47285156 -1.88867188 17.39257812 C-1.94757338 19.59549439 -1.98382754 21.79642319 -2 24 C-2.66 24 -3.32 24 -4 24 C-5.24911667 16.34916042 -5.09053426 8.72559014 -5 1 C-3.68 1 -2.36 1 -1 1 C-0.67 0.67 -0.34 0.34 0 0 Z " fill="#474747" transform="translate(288,459)"/>
<path d="M0 0 C3.15189983 4.87794022 3.38465804 8.78380011 3.1875 14.375 C3.16719727 15.47908203 3.16719727 15.47908203 3.14648438 16.60546875 C3.11144869 18.40396743 3.05765288 20.20208422 3 22 C2.34 22 1.68 22 1 22 C0.93941406 20.96359375 0.87882812 19.9271875 0.81640625 18.859375 C0.73196629 17.48957127 0.64732003 16.11978025 0.5625 14.75 C0.52318359 14.06808594 0.48386719 13.38617188 0.44335938 12.68359375 C0.23333528 9.35551959 -0.01934002 6.19744598 -1 3 C-5.25731568 2.59250325 -5.25731568 2.59250325 -8.875 4.5 C-9.24625 4.995 -9.6175 5.49 -10 6 C-10.99 5.67 -11.98 5.34 -13 5 C-12.34 5 -11.68 5 -11 5 C-10.7525 4.38125 -10.505 3.7625 -10.25 3.125 C-7.78406601 -1.06708778 -4.43080398 -1.81776574 0 0 Z " fill="#454545" transform="translate(511,461)"/>
<path d="M0 0 C3.70945736 0.05210669 7.41662744 0.14723787 11.125 0.25 C12.17171875 0.26417969 13.2184375 0.27835937 14.296875 0.29296875 C20.46834173 0.48826833 24.30711632 0.86285255 29 5 C30.875 7.25 30.875 7.25 32 9 C27.30793874 7.35143794 27.30793874 7.35143794 25.64672852 5.45556641 C23.40413076 3.47330283 21.9276335 3.58917632 18.96484375 3.5234375 C17.99095703 3.4925 17.01707031 3.4615625 16.01367188 3.4296875 C14.4909668 3.40261719 14.4909668 3.40261719 12.9375 3.375 C10.92568185 3.32410011 8.91395072 3.26959271 6.90234375 3.2109375 C5.56417603 3.18459229 5.56417603 3.18459229 4.19897461 3.15771484 C2 3 2 3 0 2 C0 1.34 0 0.68 0 0 Z " fill="#A1B07E" transform="translate(361,390)"/>
<path d="M0 0 C-0.33 0.99 -0.66 1.98 -1 3 C-19.15 3 -37.3 3 -56 3 C-56 2.67 -56 2.34 -56 2 C-55.05159492 1.9845388 -55.05159492 1.9845388 -54.08403015 1.96876526 C-47.51432876 1.86073996 -40.94476562 1.74613861 -34.37524414 1.62768555 C-31.92214851 1.58432398 -29.46902247 1.54264981 -27.01586914 1.50268555 C-23.49355899 1.44501279 -19.97140216 1.38130948 -16.44921875 1.31640625 C-14.79910042 1.29133751 -14.79910042 1.29133751 -13.11564636 1.26576233 C-12.09481461 1.24581711 -11.07398285 1.22587189 -10.0222168 1.20532227 C-8.67319527 1.18200584 -8.67319527 1.18200584 -7.29692078 1.15821838 C-4.71629504 0.9804576 -2.58039891 0 0 0 Z " fill="#FBFEEB" transform="translate(245,156)"/>
<path d="M0 0 C1.61949011 2.57213134 2.04408751 3.67669159 1.625 6.75 C1.41875 7.4925 1.2125 8.235 1 9 C-0.65 9.33 -2.3 9.66 -4 10 C-4.99 8.35 -5.98 6.7 -7 5 C-2.25 0 -2.25 0 0 0 Z " fill="#99AC6D" transform="translate(369,307)"/>
<path d="M0 0 C0 0.66 0 1.32 0 2 C-0.80824219 2.69480469 -1.61648438 3.38960938 -2.44921875 4.10546875 C-5.78704807 7.89311274 -5.77325328 10.432824 -5.8125 15.3125 C-5.83763672 16.05306641 -5.86277344 16.79363281 -5.88867188 17.55664062 C-5.94718443 19.37052969 -5.97654349 21.18531903 -6 23 C-6.66 22.67 -7.32 22.34 -8 22 C-8 15.07 -8 8.14 -8 1 C-6.68 1 -5.36 1 -4 1 C-2 0 -2 0 0 0 Z " fill="#343434" transform="translate(479,460)"/>
<path d="M0 0 C5.49418605 -0.36627907 5.49418605 -0.36627907 7.8125 1.3125 C10.60616716 5.28244808 10.11506556 9.55768762 10.0625 14.1875 C10.05798828 14.93708984 10.05347656 15.68667969 10.04882812 16.45898438 C10.03706354 18.30602383 10.01912865 20.15302213 10 22 C9.34 22 8.68 22 8 22 C7.93941406 20.97519531 7.87882813 19.95039063 7.81640625 18.89453125 C7.73194974 17.53384305 7.64730433 16.17316657 7.5625 14.8125 C7.52318359 14.13896484 7.48386719 13.46542969 7.44335938 12.77148438 C7.21072435 9.10300898 6.82792989 5.58305794 6 2 C4.02 2 2.04 2 0 2 C0 1.34 0 0.68 0 0 Z " fill="#4C4C4C" transform="translate(213,459)"/>
<path d="M0 0 C8.58 0 17.16 0 26 0 C26.66679456 3.3339728 27.21187864 6.45655274 27.5625 9.8125 C27.68818359 10.99779297 27.68818359 10.99779297 27.81640625 12.20703125 C27.87699219 12.79871094 27.93757813 13.39039063 28 14 C25.9375 12 25.9375 12 24 9 C24.33 6.36 24.66 3.72 25 1 C12.625 1.495 12.625 1.495 0 2 C0 1.34 0 0.68 0 0 Z " fill="#B6C399" transform="translate(348,362)"/>
<path d="M0 0 C2.31 0 4.62 0 7 0 C8.66674321 2.91824244 9.2432008 4.97594379 9.1953125 8.328125 C9.18564453 9.52695312 9.18564453 9.52695312 9.17578125 10.75 C9.15902344 11.575 9.14226562 12.4 9.125 13.25 C9.11146484 14.51070313 9.11146484 14.51070313 9.09765625 15.796875 C9.07415817 17.86470604 9.03828908 19.93238995 9 22 C8.34 21.67 7.68 21.34 7 21 C6.93941406 19.79601562 6.87882813 18.59203125 6.81640625 17.3515625 C6.73200268 15.77602923 6.64735459 14.20050904 6.5625 12.625 C6.52318359 11.8309375 6.48386719 11.036875 6.44335938 10.21875 C6.31106596 5.97398779 6.31106596 5.97398779 5 2 C2.47266765 1.34444881 2.47266765 1.34444881 0 1 C0 0.67 0 0.34 0 0 Z " fill="#5A5A5A" transform="translate(248,459)"/>
<path d="M0 0 C0.99 0.33 1.98 0.66 3 1 C3 1.33 3 1.66 3 2 C4.79133978 2.05391993 6.58313899 2.09275571 8.375 2.125 C9.37273437 2.14820313 10.37046875 2.17140625 11.3984375 2.1953125 C14.16262173 2.27216848 14.16262173 2.27216848 16 0 C16.33 1.65 16.66 3.3 17 5 C11.72 5 6.44 5 1 5 C0.67 3.35 0.34 1.7 0 0 Z " fill="#E6EDD1" transform="translate(340,176)"/>
<path d="M0 0 C2 3 2 3 2 10 C-3.28 10 -8.56 10 -14 10 C-13.67 9.34 -13.34 8.68 -13 8 C-8.71 8 -4.42 8 0 8 C0 5.36 0 2.72 0 0 Z " fill="#E8EED4" transform="translate(330,171)"/>
<path d="M0 0 C0.66 0.99 1.32 1.98 2 3 C-1.625 8.75 -1.625 8.75 -5 11 C-5 10.34 -5 9.68 -5 9 C-11.6 9 -18.2 9 -25 9 C-25 8.67 -25 8.34 -25 8 C-17.74 8 -10.48 8 -3 8 C-2.34 6.02 -1.68 4.04 -1 2 C-0.67 1.34 -0.34 0.68 0 0 Z " fill="#A6B485" transform="translate(265,383)"/>
<path d="M0 0 C2 2 2 2 2.875 4.5 C4.23142821 7.51428491 4.97859641 7.84444565 8 9 C10.36222232 9.23979762 10.36222232 9.23979762 12.75 9.125 C13.94882812 9.09792969 13.94882812 9.09792969 15.171875 9.0703125 C16.07679688 9.03550781 16.07679688 9.03550781 17 9 C17 9.66 17 10.32 17 11 C13.89046621 12.5547669 11.43733239 12.28644437 8 12 C4.29609979 9.97333762 2.34636989 8.51955484 0 5 C-0.125 2.3125 -0.125 2.3125 0 0 Z " fill="#424242" transform="translate(262,469)"/>
<path d="M0 0 C0.33 0 0.66 0 1 0 C1.42317708 2.01822917 1.84635417 4.03645833 2.26953125 6.0546875 C2.92308838 8.37046549 2.92308838 8.37046549 6 10 C10.84122604 9.76957241 10.84122604 9.76957241 14.9375 7.4375 C15.288125 6.963125 15.63875 6.48875 16 6 C16.66 6.33 17.32 6.66 18 7 C15.90050565 9.70902496 14.2529027 11.73024693 10.8046875 12.47265625 C7.07745918 12.61411871 4.68772741 12.40257214 1.4375 10.5 C-0.65742367 6.85665449 -0.27769546 4.16543193 0 0 Z " fill="#313131" transform="translate(148,470)"/>
<path d="M0 0 C0.66 0 1.32 0 2 0 C1.67 5.94 1.34 11.88 1 18 C0.34 18 -0.32 18 -1 18 C-1.02684312 15.18743719 -1.04676188 12.37512759 -1.0625 9.5625 C-1.07087891 8.76005859 -1.07925781 7.95761719 -1.08789062 7.13085938 C-1.0965143 5.08704779 -1.0522815 3.04316098 -1 1 C-0.67 0.67 -0.34 0.34 0 0 Z " fill="#2F2F2F" transform="translate(193,464)"/>
<path d="M0 0 C1.60488281 0.03383789 1.60488281 0.03383789 3.2421875 0.06835938 C5.87124407 0.12704367 8.49738582 0.2090882 11.125 0.3125 C11.125 0.9725 11.125 1.6325 11.125 2.3125 C10.52026855 2.29155273 9.91553711 2.27060547 9.29248047 2.24902344 C6.52849229 2.16541055 3.76477087 2.11369946 1 2.0625 C0.04867187 2.02898437 -0.90265625 1.99546875 -1.8828125 1.9609375 C-7.9040005 1.87730989 -11.25214263 2.35894521 -15.875 6.3125 C-16.535 5.9825 -17.195 5.6525 -17.875 5.3125 C-12.47903518 -0.61559284 -7.71483116 -0.30878327 0 0 Z " fill="#99A972" transform="translate(248.875,391.6875)"/>
<path d="M0 0 C0.99 0.33 1.98 0.66 3 1 C3 1.66 3 2.32 3 3 C3.66 3 4.32 3 5 3 C5 3.66 5 4.32 5 5 C5.99 4.67 6.98 4.34 8 4 C9.48354153 3.98453739 10.96829574 4.03164202 12.44921875 4.12109375 C13.29677734 4.16943359 14.14433594 4.21777344 15.01757812 4.26757812 C15.89865234 4.32365234 16.77972656 4.37972656 17.6875 4.4375 C18.58017578 4.48970703 19.47285156 4.54191406 20.39257812 4.59570312 C22.5954156 4.7252818 24.79778873 4.86024246 27 5 C27 5.66 27 6.32 27 7 C19.08 6.67 11.16 6.34 3 6 C2.01 4.02 1.02 2.04 0 0 Z " fill="#F8FCE8" transform="translate(359,385)"/>
<path d="M0 0 C1.3950848 2.29778673 2.07438619 3.4792967 1.6875 6.1875 C1 8 1 8 0 9 C-1.66617115 9.04063832 -3.33388095 9.042721 -5 9 C-5.33 8.01 -5.66 7.02 -6 6 C-5.195625 5.7525 -4.39125 5.505 -3.5625 5.25 C-0.828919 4.27761141 -0.828919 4.27761141 -0.1875 1.875 C-0.125625 1.25625 -0.06375 0.6375 0 0 Z " fill="#A0AF78" transform="translate(397,291)"/>
<path d="M0 0 C2.58646214 1.29323107 2.63668534 2.25699997 3.5625 4.9375 C4.29822324 7.03793267 5.00401313 9.00802626 6 11 C5.01 11 4.02 11 3 11 C1.515 8.03 1.515 8.03 0 5 C-0.99 5.66 -1.98 6.32 -3 7 C-6.1875 7.125 -6.1875 7.125 -9 7 C-8.443125 6.773125 -7.88625 6.54625 -7.3125 6.3125 C-4.36753316 4.64103234 -2.31843456 2.44723648 0 0 Z " fill="#2F2F2F" transform="translate(400,469)"/>
<path d="M0 0 C2.65115841 2.65115841 2.39072791 4.51389959 2.65625 8.125 C2.86035366 10.23902286 2.86035366 10.23902286 5 12 C6.64991582 12.70710678 8.31562256 13.37943989 10 14 C10 14.33 10 14.66 10 15 C3.51020408 14.51020408 3.51020408 14.51020408 1.28125 12.28125 C-0.25756104 9.54141572 -0.31056869 7.86774013 -0.1875 4.75 C-0.16042969 3.85796875 -0.13335937 2.9659375 -0.10546875 2.046875 C-0.07066406 1.37140625 -0.03585938 0.6959375 0 0 Z " fill="#494949" transform="translate(170,464)"/>
<path d="M0 0 C0.33 0 0.66 0 1 0 C1 1.98 1 3.96 1 6 C2.32 6.66 3.64 7.32 5 8 C4.01 8 3.02 8 2 8 C2 11.63 2 15.26 2 19 C1.34 19 0.68 19 0 19 C0 12.73 0 6.46 0 0 Z " fill="#2F2F2F" transform="translate(361,472)"/>
<path d="M0 0 C3.83325416 1.45399296 5.28279605 3.3080115 7 7 C7.4375 9.5625 7.4375 9.5625 7 12 C5 14.3125 5 14.3125 3 16 C3 13 3 13 4 12 C4.46167861 9.30687478 4.42697209 7.63597941 2.8828125 5.3359375 C1.63593427 3.84954593 0.32142331 2.42053006 -1 1 C-0.67 0.67 -0.34 0.34 0 0 Z " fill="#3E3E3E" transform="translate(460,462)"/>
<path d="M0 0 C0.33 0.99 0.66 1.98 1 3 C0.67 3.66 0.34 4.32 0 5 C-7.92 5.33 -15.84 5.66 -24 6 C-23.67 5.34 -23.34 4.68 -23 4 C-22.11477661 3.97812622 -22.11477661 3.97812622 -21.21166992 3.95581055 C-18.53628771 3.88131156 -15.86215108 3.78466005 -13.1875 3.6875 C-11.7943457 3.65366211 -11.7943457 3.65366211 -10.37304688 3.61914062 C-9.48037109 3.58369141 -8.58769531 3.54824219 -7.66796875 3.51171875 C-6.84578857 3.48553467 -6.0236084 3.45935059 -5.17651367 3.43237305 C-2.57393468 2.91536044 -1.66089283 2.01797305 0 0 Z " fill="#F7FBE7" transform="translate(262,386)"/>
<path d="M0 0 C1 2 2 4 3 6 C1.02 6.99 1.02 6.99 -1 8 C-1 8.99 -1 9.98 -1 11 C-0.01 11.33 0.98 11.66 2 12 C-2 12 -2 12 -4.25 10 C-4.8275 9.34 -5.405 8.68 -6 8 C-3 6 -3 6 -1 5 C-0.34444881 2.47266765 -0.34444881 2.47266765 0 0 Z " fill="#9BAD72" transform="translate(333,325)"/>
<path d="M0 0 C1.65 0.33 3.3 0.66 5 1 C2.69716746 3.54131358 0.32686207 5.07110295 -2.6875 6.6875 C-3.89986328 7.34298828 -3.89986328 7.34298828 -5.13671875 8.01171875 C-5.75160156 8.33785156 -6.36648438 8.66398437 -7 9 C-6.67 7.68 -6.34 6.36 -6 5 C-5.38125 4.9175 -4.7625 4.835 -4.125 4.75 C-1.81562433 4.18741541 -1.81562433 4.18741541 -0.75 1.9375 C-0.5025 1.298125 -0.255 0.65875 0 0 Z " fill="#9CAC77" transform="translate(410,362)"/>
<path d="M0 0 C0.66 0 1.32 0 2 0 C1.6984013 3.51865145 0.99394038 5.00757452 -1.25 7.8125 C-4 10 -4 10 -6.8125 10.3125 C-7.534375 10.209375 -8.25625 10.10625 -9 10 C-8.67 9.34 -8.34 8.68 -8 8 C-4.9375 7.375 -4.9375 7.375 -2 7 C-1.34 4.69 -0.68 2.38 0 0 Z " fill="#444444" transform="translate(374,471)"/>
<path d="M0 0 C0.4125 0.556875 0.825 1.11375 1.25 1.6875 C1.8275 2.450625 2.405 3.21375 3 4 C3.639375 4.845625 4.27875 5.69125 4.9375 6.5625 C6.82148858 8.78903196 8.59870556 10.3705502 11 12 C5.50847458 11.38983051 5.50847458 11.38983051 3.125 9.5625 C2 8 2 8 2 6 C1.34 6 0.68 6 0 6 C0 4.02 0 2.04 0 0 Z " fill="#F4F9E5" transform="translate(172,350)"/>
<path d="M0 0 C0.33 0 0.66 0 1 0 C1.5 2.5625 1.5 2.5625 1 6 C-1.41995038 8.65876127 -4.13443598 10.83803429 -7 13 C-7.66 12.34 -8.32 11.68 -9 11 C-8.21625 10.773125 -7.4325 10.54625 -6.625 10.3125 C-3.82291667 9.23958333 -3.82291667 9.23958333 -2.8125 6.625 C-2.544375 5.75875 -2.27625 4.8925 -2 4 C-1.34786461 2.65949948 -0.68620031 1.32338632 0 0 Z " fill="#F1F6E0" transform="translate(451,349)"/>
<path d="M0 0 C-0.8125 2.9375 -0.8125 2.9375 -2 6 C-5.28976808 7.09658936 -6.71303767 6.79953138 -10 6 C-2.6 0 -2.6 0 0 0 Z " fill="#9DAC77" transform="translate(422,336)"/>
<path d="M0 0 C2.375 0.5625 2.375 0.5625 4.1875 2.5625 C4.579375 3.2225 4.97125 3.8825 5.375 4.5625 C4.385 5.0575 4.385 5.0575 3.375 5.5625 C3.045 4.9025 2.715 4.2425 2.375 3.5625 C-0.04119823 3.31219023 -0.04119823 3.31219023 -2.625 3.5625 C-3.615 5.0475 -3.615 5.0475 -4.625 6.5625 C-5.615 6.2325 -6.605 5.9025 -7.625 5.5625 C-3.39423077 0.72733516 -3.39423077 0.72733516 0 0 Z " fill="#414141" transform="translate(492.625,459.4375)"/>
<path d="M0 0 C-4.50711952 2.63831386 -7.76852351 3.6036319 -13 3 C-13.66 2.01 -14.32 1.02 -15 0 C-14.06027344 0.01740234 -14.06027344 0.01740234 -13.1015625 0.03515625 C-11.87566406 0.04869141 -11.87566406 0.04869141 -10.625 0.0625 C-9.40683594 0.07990234 -9.40683594 0.07990234 -8.1640625 0.09765625 C-0.78451883 -0.23535565 -0.78451883 -0.23535565 0 0 Z " fill="#9EAC7A" transform="translate(392,378)"/>
<path d="M0 0 C2.01544839 2.26737944 2.94914998 3.57285984 3.3125 6.625 C3 9 3 9 1 11 C-1.625 10.625 -1.625 10.625 -4 10 C-3.34 9.649375 -2.68 9.29875 -2 8.9375 C0.41103961 7.03442858 0.41103961 7.03442858 0.25 3.3125 C0.12625 1.6728125 0.12625 1.6728125 0 0 Z " fill="#9FAD79" transform="translate(358,322)"/>
<path d="M0 0 C-0.598125 0.268125 -1.19625 0.53625 -1.8125 0.8125 C-4.12324553 2.06690471 -5.3897178 2.92452516 -7 5 C-7.57947281 7.96243726 -7.57947281 7.96243726 -7.6875 11.1875 C-7.75324219 12.27417969 -7.81898438 13.36085938 -7.88671875 14.48046875 C-7.92410156 15.31191406 -7.96148437 16.14335937 -8 17 C-8.33 17 -8.66 17 -9 17 C-9.10832169 14.91781638 -9.18573541 12.83400871 -9.25 10.75 C-9.29640625 9.58984375 -9.3428125 8.4296875 -9.390625 7.234375 C-9 4 -9 4 -7.15625 1.59375 C-4.5589853 -0.32596739 -3.15813287 -0.35090365 0 0 Z " fill="#DBDBDB" transform="translate(372,461)"/>
<path d="M0 0 C2.97 0.495 2.97 0.495 6 1 C6 1.33 6 1.66 6 2 C3.69 2.33 1.38 2.66 -1 3 C-1.33 4.98 -1.66 6.96 -2 9 C-0.68 9.33 0.64 9.66 2 10 C0.35 10 -1.3 10 -3 10 C-3.75 7.8125 -3.75 7.8125 -4 5 C-2.0625 2.1875 -2.0625 2.1875 0 0 Z " fill="#5C5C5C" transform="translate(323,460)"/>
<path d="M0 0 C2.96865509 2.54456151 4.3619751 5.48994665 6 9 C0.06 8.01 0.06 8.01 -6 7 C-6 6.67 -6 6.34 -6 6 C-3.69 5.34 -1.38 4.68 1 4 C0.67 2.68 0.34 1.36 0 0 Z " fill="#EAF2D6" transform="translate(340,308)"/>
<path d="M0 0 C2 2 2 2 2.125 4.625 C2.08375 5.40875 2.0425 6.1925 2 7 C3.65 7.33 5.3 7.66 7 8 C5.25 9.125 5.25 9.125 3 10 C0.75 9.125 0.75 9.125 -1 8 C-1.125 2.25 -1.125 2.25 0 0 Z " fill="#505050" transform="translate(388,466)"/>
<path d="M0 0 C0 0.66 0 1.32 0 2 C-0.94875 2.28875 -1.8975 2.5775 -2.875 2.875 C-6.05211578 3.76825109 -6.05211578 3.76825109 -8 6 C-8.99 5.67 -9.98 5.34 -11 5 C-10.34 5 -9.68 5 -9 5 C-8.7525 4.38125 -8.505 3.7625 -8.25 3.125 C-6.05756043 -0.60214727 -4.06146667 -1.35382222 0 0 Z " fill="#585858" transform="translate(509,461)"/>
<path d="M0 0 C0.66 1.32 1.32 2.64 2 4 C1.566875 4.350625 1.13375 4.70125 0.6875 5.0625 C-1.68358456 7.78485635 -2.6716835 10.64758216 -4 14 C-4.66 14 -5.32 14 -6 14 C-4.50829734 9.0276578 -2.39542583 4.58154261 0 0 Z " fill="#F5FAE5" transform="translate(277,377)"/>
<path d="M0 0 C0.66 0.33 1.32 0.66 2 1 C0.02 1.99 0.02 1.99 -2 3 C-2 3.99 -2 4.98 -2 6 C-4.64 6.33 -7.28 6.66 -10 7 C-7.20283196 3.70921407 -3.80471422 1.93694542 0 0 Z " fill="#A0AF7C" transform="translate(403,346)"/>
<path d="M0 0 C0.33 0 0.66 0 1 0 C1 5.28 1 10.56 1 16 C0.01 16.33 -0.98 16.66 -2 17 C-1.4618629 11.30948637 -0.8599867 5.65134116 0 0 Z " fill="#A7B588" transform="translate(285,163)"/>
<path d="M0 0 C1.485 0.99 1.485 0.99 3 2 C3.29296875 5.0390625 3.29296875 5.0390625 3.1875 8.625 C3.16042969 9.81351563 3.13335937 11.00203125 3.10546875 12.2265625 C3.07066406 13.14179688 3.03585937 14.05703125 3 15 C2.67 15 2.34 15 2 15 C1.66048381 13.43883181 1.32867456 11.87598662 1 10.3125 C0.814375 9.44238281 0.62875 8.57226562 0.4375 7.67578125 C0.01027953 5.06287036 -0.07616201 2.64186962 0 0 Z " fill="#A0AF7B" transform="translate(330,166)"/>
<path d="M0 0 C1.98738098 0.01761863 3.97253109 0.16698176 5.953125 0.33203125 C5.953125 0.66203125 5.953125 0.99203125 5.953125 1.33203125 C4.880625 1.57953125 3.808125 1.82703125 2.703125 2.08203125 C-1.04336937 3.33086271 -2.56761382 4.35691783 -5.046875 7.33203125 C-5.376875 6.67203125 -5.706875 6.01203125 -6.046875 5.33203125 C-3.15469741 0.51173527 -3.15469741 0.51173527 0 0 Z " fill="#313131" transform="translate(248.046875,459.66796875)"/>
<path d="M0 0 C3.0916909 2.52956528 3.90931332 5.22454612 5 9 C1.125 7.125 1.125 7.125 0 6 C-0.04080783 4.00041636 -0.04254356 1.99954746 0 0 Z " fill="#9FAE79" transform="translate(356,380)"/>
<path d="M0 0 C0.99 0 1.98 0 3 0 C3 0.66 3 1.32 3 2 C3.99 2.33 4.98 2.66 6 3 C6.33 3.66 6.66 4.32 7 5 C7.99 5.33 8.98 5.66 10 6 C9.67 6.66 9.34 7.32 9 8 C5.01824456 5.89851796 2.64960955 3.63094642 0 0 Z " fill="#9DAC7B" transform="translate(233,208)"/>
<path d="M0 0 C-0.33 0.66 -0.66 1.32 -1 2 C-0.67 2.99 -0.34 3.98 0 5 C-3.65316671 3.75023244 -4.78065836 3.32901247 -7 0 C-2.25 -1.125 -2.25 -1.125 0 0 Z " fill="#A0B178" transform="translate(320,211)"/>
<path d="M0 0 C1.32 0.33 2.64 0.66 4 1 C1.77094624 3.84396515 -0.43855205 6.43855205 -3 9 C-2.01 6.03 -1.02 3.06 0 0 Z " fill="#F0F7E2" transform="translate(278,147)"/>
<path d="M0 0 C0.33 0 0.66 0 1 0 C1 3.3 1 6.6 1 10 C-1.46278801 7.53721199 -1.99771255 5.29323018 -3 2 C-2.01 2.33 -1.02 2.66 0 3 C0 2.01 0 1.02 0 0 Z " fill="#DDE9C3" transform="translate(426,309)"/>
<path d="M0 0 C0.89694794 3.58779175 1.08304117 6.34618837 1 10 C-0.32 10.33 -1.64 10.66 -3 11 C-2.01 7.37 -1.02 3.74 0 0 Z " fill="#A3B07C" transform="translate(262,166)"/>
<path d="M0 0 C0.99 0.33 1.98 0.66 3 1 C0.63707344 3.52588702 -0.66462511 4.88820837 -4 6 C-2.25 1.125 -2.25 1.125 0 0 Z " fill="#9CAB78" transform="translate(445,355)"/>
<path d="M0 0 C0.625 1.875 0.625 1.875 1 4 C0.34 4.66 -0.32 5.32 -1 6 C-3.625 5.625 -3.625 5.625 -6 5 C-5.38125 4.731875 -4.7625 4.46375 -4.125 4.1875 C-1.7004767 3.04443152 -1.7004767 3.04443152 0 0 Z " fill="#A4B086" transform="translate(384,303)"/>
<path d="M0 0 C-2.17424117 2.50037734 -3.73045798 3.43628586 -7 4 C-7.33 3.34 -7.66 2.68 -8 2 C-7.34 2 -6.68 2 -6 2 C-6 1.34 -6 0.68 -6 0 C-3.50907189 -1.24546405 -2.58919267 -0.7767578 0 0 Z " fill="#9EAE79" transform="translate(259,212)"/>
<path d="M0 0 C3.3 0 6.6 0 10 0 C10 0.99 10 1.98 10 3 C9.67 2.67 9.34 2.34 9 2 C6.04182893 1.74994614 6.04182893 1.74994614 3 2 C2.34 2.66 1.68 3.32 1 4 C0.67 2.68 0.34 1.36 0 0 Z " fill="#F5FBE5" transform="translate(354,147)"/>
<path d="M0 0 C3 1.8125 3 1.8125 6 4 C6 4.99 6 5.98 6 7 C1.2 4.53846154 1.2 4.53846154 0.1875 1.8125 C0.125625 1.214375 0.06375 0.61625 0 0 Z " fill="#9EAD7B" transform="translate(371,351)"/>
<path d="M0 0 C1.32 0.33 2.64 0.66 4 1 C4.33 2.65 4.66 4.3 5 6 C2.5 4.6875 2.5 4.6875 0 3 C0 2.01 0 1.02 0 0 Z " fill="#9BAC73" transform="translate(177,355)"/>
<path d="M0 0 C2.96175123 0.61277612 4.38058783 1.25372522 7 3 C5.35 3.33 3.7 3.66 2 4 C1.34 2.68 0.68 1.36 0 0 Z " fill="#9FAD7F" transform="translate(363,313)"/>
<path d="M0 0 C2.02910711 0.25327449 4.04962145 0.57730068 6.0625 0.9375 C7.16722656 1.13214844 8.27195312 1.32679688 9.41015625 1.52734375 C10.69212891 1.76130859 10.69212891 1.76130859 12 2 C12 2.33 12 2.66 12 3 C10.20866022 3.05391993 8.41686101 3.09275571 6.625 3.125 C5.62726563 3.14820313 4.62953125 3.17140625 3.6015625 3.1953125 C1 3 1 3 -1 1 C-0.67 0.67 -0.34 0.34 0 0 Z " fill="#9BAB75" transform="translate(292,213)"/>
</svg>
